G75*
%MOIN*%
%OFA0B0*%
%FSLAX25Y25*%
%IPPOS*%
%LPD*%
%AMOC8*
5,1,8,0,0,1.08239X$1,22.5*
%
%ADD10OC8,0.06000*%
%ADD11C,0.01000*%
%ADD12C,0.03800*%
D10*
X0146000Y0086000D03*
X0146000Y0096000D03*
X0156000Y0096000D03*
X0166000Y0096000D03*
X0166000Y0086000D03*
X0156000Y0086000D03*
X0176000Y0086000D03*
X0176000Y0096000D03*
X0186000Y0096000D03*
X0196000Y0096000D03*
X0196000Y0086000D03*
X0186000Y0086000D03*
X0206000Y0086000D03*
X0216000Y0086000D03*
X0216000Y0096000D03*
X0206000Y0096000D03*
X0226000Y0096000D03*
X0236000Y0096000D03*
X0236000Y0086000D03*
X0226000Y0086000D03*
X0246000Y0086000D03*
X0256000Y0086000D03*
X0256000Y0096000D03*
X0246000Y0096000D03*
X0236000Y0166000D03*
X0226000Y0166000D03*
X0226000Y0176000D03*
X0236000Y0176000D03*
X0216000Y0176000D03*
X0206000Y0176000D03*
X0206000Y0166000D03*
X0216000Y0166000D03*
X0196000Y0166000D03*
X0186000Y0166000D03*
X0186000Y0176000D03*
X0196000Y0176000D03*
X0176000Y0176000D03*
X0176000Y0166000D03*
X0166000Y0166000D03*
X0166000Y0176000D03*
D11*
X0143400Y0081953D02*
X0143400Y0078400D01*
X0258600Y0078400D01*
X0258600Y0081953D01*
X0257947Y0081300D01*
X0254511Y0081300D01*
X0252111Y0078900D01*
X0183689Y0078900D01*
X0182400Y0080189D01*
X0179618Y0082971D01*
X0177947Y0081300D01*
X0174053Y0081300D01*
X0171300Y0084053D01*
X0171300Y0087947D01*
X0172971Y0089618D01*
X0172500Y0090089D01*
X0169618Y0092971D01*
X0167947Y0091300D01*
X0164053Y0091300D01*
X0161300Y0094053D01*
X0161300Y0097947D01*
X0163331Y0099978D01*
X0162648Y0100661D01*
X0162100Y0101984D01*
X0162100Y0103189D01*
X0161700Y0103589D01*
X0147300Y0117989D01*
X0147300Y0122309D01*
X0146448Y0123161D01*
X0145900Y0124484D01*
X0145900Y0125916D01*
X0146448Y0127239D01*
X0147461Y0128252D01*
X0148784Y0128800D01*
X0150216Y0128800D01*
X0151539Y0128252D01*
X0152552Y0127239D01*
X0153100Y0125916D01*
X0153100Y0124484D01*
X0152552Y0123161D01*
X0151700Y0122309D01*
X0151700Y0119811D01*
X0163900Y0107611D01*
X0180089Y0123800D01*
X0195209Y0123800D01*
X0196061Y0124652D01*
X0197384Y0125200D01*
X0198589Y0125200D01*
X0205800Y0132411D01*
X0205800Y0135809D01*
X0204948Y0136661D01*
X0204400Y0137984D01*
X0204400Y0139416D01*
X0204948Y0140739D01*
X0205961Y0141752D01*
X0207284Y0142300D01*
X0208716Y0142300D01*
X0210039Y0141752D01*
X0211052Y0140739D01*
X0211600Y0139416D01*
X0211600Y0137984D01*
X0211052Y0136661D01*
X0210200Y0135809D01*
X0210200Y0130589D01*
X0202511Y0122900D01*
X0208709Y0122900D01*
X0209561Y0123752D01*
X0210884Y0124300D01*
X0212316Y0124300D01*
X0213639Y0123752D01*
X0214652Y0122739D01*
X0215200Y0121416D01*
X0215200Y0119984D01*
X0214652Y0118661D01*
X0213639Y0117648D01*
X0212316Y0117100D01*
X0210884Y0117100D01*
X0209561Y0117648D01*
X0208709Y0118500D01*
X0203511Y0118500D01*
X0199811Y0114800D01*
X0200811Y0114800D01*
X0202100Y0113511D01*
X0203011Y0112600D01*
X0204216Y0112600D01*
X0205539Y0112052D01*
X0206552Y0111039D01*
X0207100Y0109716D01*
X0207100Y0108284D01*
X0206552Y0106961D01*
X0205539Y0105948D01*
X0205182Y0105800D01*
X0206211Y0105800D01*
X0212511Y0099500D01*
X0212824Y0099188D01*
X0214136Y0100500D01*
X0215500Y0100500D01*
X0215500Y0096500D01*
X0216500Y0096500D01*
X0216500Y0100500D01*
X0217864Y0100500D01*
X0220500Y0097864D01*
X0220500Y0096500D01*
X0216500Y0096500D01*
X0216500Y0095500D01*
X0220500Y0095500D01*
X0220500Y0094136D01*
X0219564Y0093200D01*
X0222153Y0093200D01*
X0221300Y0094053D01*
X0221300Y0097947D01*
X0224053Y0100700D01*
X0227947Y0100700D01*
X0230700Y0097947D01*
X0230700Y0094053D01*
X0227947Y0091300D01*
X0224311Y0091300D01*
X0224911Y0090700D01*
X0227947Y0090700D01*
X0230700Y0087947D01*
X0230700Y0084053D01*
X0229947Y0083300D01*
X0232053Y0083300D01*
X0231300Y0084053D01*
X0231300Y0087947D01*
X0234053Y0090700D01*
X0237947Y0090700D01*
X0240700Y0087947D01*
X0240700Y0084053D01*
X0239947Y0083300D01*
X0242053Y0083300D01*
X0241300Y0084053D01*
X0241300Y0087947D01*
X0244053Y0090700D01*
X0247947Y0090700D01*
X0250700Y0087947D01*
X0250700Y0084053D01*
X0249947Y0083300D01*
X0250289Y0083300D01*
X0251300Y0084311D01*
X0251300Y0087947D01*
X0254053Y0090700D01*
X0257947Y0090700D01*
X0258600Y0090047D01*
X0258600Y0091953D01*
X0257947Y0091300D01*
X0254053Y0091300D01*
X0251300Y0094053D01*
X0251300Y0097947D01*
X0254053Y0100700D01*
X0257947Y0100700D01*
X0258600Y0100047D01*
X0258600Y0178600D01*
X0240047Y0178600D01*
X0240700Y0177947D01*
X0240700Y0174053D01*
X0237947Y0171300D01*
X0234053Y0171300D01*
X0232962Y0172392D01*
X0233200Y0171816D01*
X0233200Y0170611D01*
X0233582Y0170229D01*
X0234053Y0170700D01*
X0237947Y0170700D01*
X0240700Y0167947D01*
X0240700Y0164053D01*
X0237947Y0161300D01*
X0234053Y0161300D01*
X0233600Y0161753D01*
X0233600Y0146991D01*
X0234452Y0146139D01*
X0235000Y0144816D01*
X0235000Y0143384D01*
X0234452Y0142061D01*
X0233439Y0141048D01*
X0232116Y0140500D01*
X0230684Y0140500D01*
X0229361Y0141048D01*
X0228700Y0141709D01*
X0228039Y0141048D01*
X0226716Y0140500D01*
X0225284Y0140500D01*
X0223961Y0141048D01*
X0222948Y0142061D01*
X0222400Y0143384D01*
X0222400Y0144816D01*
X0222948Y0146139D01*
X0223699Y0146890D01*
X0213889Y0156700D01*
X0212684Y0156700D01*
X0211361Y0157248D01*
X0210348Y0158261D01*
X0209800Y0159584D01*
X0209800Y0161016D01*
X0210348Y0162339D01*
X0211361Y0163352D01*
X0211814Y0163540D01*
X0211300Y0164053D01*
X0211300Y0167947D01*
X0214053Y0170700D01*
X0217947Y0170700D01*
X0220700Y0167947D01*
X0220700Y0164053D01*
X0217947Y0161300D01*
X0216882Y0161300D01*
X0217000Y0161016D01*
X0217000Y0159811D01*
X0228200Y0148611D01*
X0228200Y0146991D01*
X0228700Y0146491D01*
X0229200Y0146991D01*
X0229200Y0162553D01*
X0227947Y0161300D01*
X0224053Y0161300D01*
X0221300Y0164053D01*
X0221300Y0167947D01*
X0224053Y0170700D01*
X0226000Y0170700D01*
X0226000Y0171816D01*
X0226500Y0173023D01*
X0226500Y0175500D01*
X0226500Y0176500D01*
X0230500Y0176500D01*
X0230500Y0177864D01*
X0229764Y0178600D01*
X0231953Y0178600D01*
X0231300Y0177947D01*
X0231300Y0174292D01*
X0230500Y0174624D01*
X0230500Y0175500D01*
X0226500Y0175500D01*
X0225500Y0175500D01*
X0225500Y0171500D01*
X0224136Y0171500D01*
X0221500Y0174136D01*
X0221500Y0175500D01*
X0225500Y0175500D01*
X0225500Y0176500D01*
X0221500Y0176500D01*
X0221500Y0177864D01*
X0222236Y0178600D01*
X0220047Y0178600D01*
X0220700Y0177947D01*
X0220700Y0174053D01*
X0217947Y0171300D01*
X0214053Y0171300D01*
X0211300Y0174053D01*
X0211300Y0177947D01*
X0211953Y0178600D01*
X0209764Y0178600D01*
X0210500Y0177864D01*
X0210500Y0176500D01*
X0206500Y0176500D01*
X0206500Y0175500D01*
X0210500Y0175500D01*
X0210500Y0174136D01*
X0207864Y0171500D01*
X0206500Y0171500D01*
X0206500Y0175500D01*
X0205500Y0175500D01*
X0205500Y0171500D01*
X0204136Y0171500D01*
X0201500Y0174136D01*
X0201500Y0175500D01*
X0205500Y0175500D01*
X0205500Y0176500D01*
X0201500Y0176500D01*
X0201500Y0177864D01*
X0202236Y0178600D01*
X0200047Y0178600D01*
X0200700Y0177947D01*
X0200700Y0174053D01*
X0197947Y0171300D01*
X0194211Y0171300D01*
X0191811Y0168900D01*
X0189747Y0168900D01*
X0190700Y0167947D01*
X0190700Y0164511D01*
X0202100Y0153111D01*
X0202100Y0144291D01*
X0202952Y0143439D01*
X0203500Y0142116D01*
X0203500Y0140684D01*
X0202952Y0139361D01*
X0201939Y0138348D01*
X0200616Y0137800D01*
X0199184Y0137800D01*
X0197861Y0138348D01*
X0196848Y0139361D01*
X0196300Y0140684D01*
X0196300Y0142116D01*
X0196848Y0143439D01*
X0197700Y0144291D01*
X0197700Y0151289D01*
X0193100Y0155889D01*
X0193100Y0146991D01*
X0193952Y0146139D01*
X0194500Y0144816D01*
X0194500Y0143384D01*
X0193952Y0142061D01*
X0192939Y0141048D01*
X0191616Y0140500D01*
X0190184Y0140500D01*
X0188861Y0141048D01*
X0187848Y0142061D01*
X0187300Y0143384D01*
X0187300Y0144816D01*
X0187848Y0146139D01*
X0188700Y0146991D01*
X0188700Y0154809D01*
X0188439Y0154548D01*
X0187116Y0154000D01*
X0185684Y0154000D01*
X0184361Y0154548D01*
X0183509Y0155400D01*
X0173789Y0155400D01*
X0167889Y0161300D01*
X0164053Y0161300D01*
X0161300Y0164053D01*
X0161300Y0167947D01*
X0164053Y0170700D01*
X0167500Y0170700D01*
X0167500Y0170916D01*
X0167742Y0171500D01*
X0166500Y0171500D01*
X0166500Y0175500D01*
X0166500Y0176500D01*
X0170500Y0176500D01*
X0170500Y0177864D01*
X0169764Y0178600D01*
X0171953Y0178600D01*
X0171300Y0177947D01*
X0171300Y0174053D01*
X0171553Y0173800D01*
X0170384Y0173800D01*
X0170008Y0173644D01*
X0170500Y0174136D01*
X0170500Y0175500D01*
X0166500Y0175500D01*
X0165500Y0175500D01*
X0165500Y0171500D01*
X0164136Y0171500D01*
X0161500Y0174136D01*
X0161500Y0175500D01*
X0165500Y0175500D01*
X0165500Y0176500D01*
X0161500Y0176500D01*
X0161500Y0177864D01*
X0162236Y0178600D01*
X0143400Y0178600D01*
X0143400Y0100047D01*
X0144053Y0100700D01*
X0147947Y0100700D01*
X0150700Y0097947D01*
X0150700Y0094053D01*
X0147947Y0091300D01*
X0144053Y0091300D01*
X0143400Y0091953D01*
X0143400Y0090047D01*
X0144053Y0090700D01*
X0147947Y0090700D01*
X0150700Y0087947D01*
X0150700Y0084053D01*
X0147947Y0081300D01*
X0144053Y0081300D01*
X0143400Y0081953D01*
X0143400Y0081879D02*
X0143474Y0081879D01*
X0143400Y0080881D02*
X0181708Y0080881D01*
X0182706Y0079882D02*
X0143400Y0079882D01*
X0143400Y0078884D02*
X0258600Y0078884D01*
X0258600Y0079882D02*
X0253094Y0079882D01*
X0254092Y0080881D02*
X0258600Y0080881D01*
X0258600Y0081879D02*
X0258526Y0081879D01*
X0255700Y0085600D02*
X0256000Y0086000D01*
X0255700Y0085600D02*
X0251200Y0081100D01*
X0184600Y0081100D01*
X0181000Y0084700D01*
X0181000Y0087400D01*
X0177400Y0091000D01*
X0174700Y0091000D01*
X0171100Y0094600D01*
X0171100Y0097300D01*
X0165700Y0102700D01*
X0163900Y0104500D01*
X0181000Y0121600D01*
X0198100Y0121600D01*
X0208000Y0131500D01*
X0208000Y0138700D01*
X0211600Y0138795D02*
X0258600Y0138795D01*
X0258600Y0139793D02*
X0211444Y0139793D01*
X0211000Y0140792D02*
X0224580Y0140792D01*
X0223219Y0141790D02*
X0209947Y0141790D01*
X0207100Y0143200D02*
X0213400Y0143200D01*
X0215200Y0141400D01*
X0215200Y0096400D01*
X0216000Y0096000D01*
X0216500Y0095859D02*
X0221300Y0095859D01*
X0221300Y0096857D02*
X0220500Y0096857D01*
X0220500Y0097856D02*
X0221300Y0097856D01*
X0222207Y0098854D02*
X0219510Y0098854D01*
X0218511Y0099853D02*
X0223206Y0099853D01*
X0228794Y0099853D02*
X0233206Y0099853D01*
X0234053Y0100700D02*
X0231300Y0097947D01*
X0231300Y0094053D01*
X0234053Y0091300D01*
X0237947Y0091300D01*
X0240700Y0094053D01*
X0240700Y0097947D01*
X0237947Y0100700D01*
X0234053Y0100700D01*
X0232207Y0098854D02*
X0229793Y0098854D01*
X0230700Y0097856D02*
X0231300Y0097856D01*
X0231300Y0096857D02*
X0230700Y0096857D01*
X0230700Y0095859D02*
X0231300Y0095859D01*
X0231300Y0094860D02*
X0230700Y0094860D01*
X0230508Y0093862D02*
X0231492Y0093862D01*
X0232490Y0092863D02*
X0229510Y0092863D01*
X0228511Y0091865D02*
X0233489Y0091865D01*
X0233221Y0089868D02*
X0228779Y0089868D01*
X0229778Y0088869D02*
X0232222Y0088869D01*
X0231300Y0087870D02*
X0230700Y0087870D01*
X0230700Y0086872D02*
X0231300Y0086872D01*
X0231300Y0085873D02*
X0230700Y0085873D01*
X0230700Y0084875D02*
X0231300Y0084875D01*
X0231477Y0083876D02*
X0230523Y0083876D01*
X0226000Y0086000D02*
X0226000Y0086500D01*
X0221500Y0091000D01*
X0214300Y0091000D01*
X0211600Y0093700D01*
X0211600Y0097300D01*
X0205300Y0103600D01*
X0198100Y0103600D01*
X0205287Y0105844D02*
X0258600Y0105844D01*
X0258600Y0106842D02*
X0206433Y0106842D01*
X0206916Y0107841D02*
X0258600Y0107841D01*
X0258600Y0108839D02*
X0207100Y0108839D01*
X0207050Y0109838D02*
X0258600Y0109838D01*
X0258600Y0110836D02*
X0206636Y0110836D01*
X0205756Y0111835D02*
X0258600Y0111835D01*
X0258600Y0112833D02*
X0202778Y0112833D01*
X0201779Y0113832D02*
X0258600Y0113832D01*
X0258600Y0114830D02*
X0199842Y0114830D01*
X0200840Y0115829D02*
X0258600Y0115829D01*
X0258600Y0116827D02*
X0201839Y0116827D01*
X0202837Y0117826D02*
X0209383Y0117826D01*
X0211600Y0120700D02*
X0202600Y0120700D01*
X0196300Y0114400D01*
X0190900Y0114400D01*
X0180100Y0103600D01*
X0181000Y0097300D02*
X0181000Y0091000D01*
X0186000Y0086000D01*
X0180709Y0081879D02*
X0178526Y0081879D01*
X0179525Y0082878D02*
X0179711Y0082878D01*
X0173474Y0081879D02*
X0168526Y0081879D01*
X0167947Y0081300D02*
X0170700Y0084053D01*
X0170700Y0087947D01*
X0167947Y0090700D01*
X0164053Y0090700D01*
X0161300Y0087947D01*
X0161300Y0084053D01*
X0164053Y0081300D01*
X0167947Y0081300D01*
X0169525Y0082878D02*
X0172475Y0082878D01*
X0171477Y0083876D02*
X0170523Y0083876D01*
X0170700Y0084875D02*
X0171300Y0084875D01*
X0171300Y0085873D02*
X0170700Y0085873D01*
X0170700Y0086872D02*
X0171300Y0086872D01*
X0171300Y0087870D02*
X0170700Y0087870D01*
X0169778Y0088869D02*
X0172222Y0088869D01*
X0172721Y0089868D02*
X0168779Y0089868D01*
X0168511Y0091865D02*
X0170724Y0091865D01*
X0169726Y0092863D02*
X0169510Y0092863D01*
X0171723Y0090866D02*
X0143400Y0090866D01*
X0143400Y0091865D02*
X0143489Y0091865D01*
X0148511Y0091865D02*
X0153489Y0091865D01*
X0154053Y0091300D02*
X0157947Y0091300D01*
X0160700Y0094053D01*
X0160700Y0097947D01*
X0157947Y0100700D01*
X0154053Y0100700D01*
X0151300Y0097947D01*
X0151300Y0094053D01*
X0154053Y0091300D01*
X0154053Y0090700D02*
X0151300Y0087947D01*
X0151300Y0084053D01*
X0154053Y0081300D01*
X0157947Y0081300D01*
X0160700Y0084053D01*
X0160700Y0087947D01*
X0157947Y0090700D01*
X0154053Y0090700D01*
X0153221Y0089868D02*
X0148779Y0089868D01*
X0149778Y0088869D02*
X0152222Y0088869D01*
X0151300Y0087870D02*
X0150700Y0087870D01*
X0150700Y0086872D02*
X0151300Y0086872D01*
X0151300Y0085873D02*
X0150700Y0085873D01*
X0150700Y0084875D02*
X0151300Y0084875D01*
X0151477Y0083876D02*
X0150523Y0083876D01*
X0149525Y0082878D02*
X0152475Y0082878D01*
X0153474Y0081879D02*
X0148526Y0081879D01*
X0158526Y0081879D02*
X0163474Y0081879D01*
X0162475Y0082878D02*
X0159525Y0082878D01*
X0160523Y0083876D02*
X0161477Y0083876D01*
X0161300Y0084875D02*
X0160700Y0084875D01*
X0160700Y0085873D02*
X0161300Y0085873D01*
X0161300Y0086872D02*
X0160700Y0086872D01*
X0160700Y0087870D02*
X0161300Y0087870D01*
X0162222Y0088869D02*
X0159778Y0088869D01*
X0158779Y0089868D02*
X0163221Y0089868D01*
X0163489Y0091865D02*
X0158511Y0091865D01*
X0159510Y0092863D02*
X0162490Y0092863D01*
X0161492Y0093862D02*
X0160508Y0093862D01*
X0160700Y0094860D02*
X0161300Y0094860D01*
X0161300Y0095859D02*
X0160700Y0095859D01*
X0160700Y0096857D02*
X0161300Y0096857D01*
X0161300Y0097856D02*
X0160700Y0097856D01*
X0159793Y0098854D02*
X0162207Y0098854D01*
X0163206Y0099853D02*
X0158794Y0099853D01*
X0162569Y0100851D02*
X0143400Y0100851D01*
X0143400Y0101850D02*
X0162156Y0101850D01*
X0162100Y0102848D02*
X0143400Y0102848D01*
X0143400Y0103847D02*
X0161442Y0103847D01*
X0160444Y0104845D02*
X0143400Y0104845D01*
X0143400Y0105844D02*
X0159445Y0105844D01*
X0158447Y0106842D02*
X0143400Y0106842D01*
X0143400Y0107841D02*
X0157448Y0107841D01*
X0156449Y0108839D02*
X0143400Y0108839D01*
X0143400Y0109838D02*
X0155451Y0109838D01*
X0154452Y0110836D02*
X0143400Y0110836D01*
X0143400Y0111835D02*
X0153454Y0111835D01*
X0152455Y0112833D02*
X0143400Y0112833D01*
X0143400Y0113832D02*
X0151457Y0113832D01*
X0150458Y0114830D02*
X0143400Y0114830D01*
X0143400Y0115829D02*
X0149460Y0115829D01*
X0148461Y0116827D02*
X0143400Y0116827D01*
X0143400Y0117826D02*
X0147463Y0117826D01*
X0147300Y0118824D02*
X0143400Y0118824D01*
X0143400Y0119823D02*
X0147300Y0119823D01*
X0147300Y0120821D02*
X0143400Y0120821D01*
X0143400Y0121820D02*
X0147300Y0121820D01*
X0146790Y0122818D02*
X0143400Y0122818D01*
X0143400Y0123817D02*
X0146176Y0123817D01*
X0145900Y0124815D02*
X0143400Y0124815D01*
X0143400Y0125814D02*
X0145900Y0125814D01*
X0146271Y0126812D02*
X0143400Y0126812D01*
X0143400Y0127811D02*
X0147020Y0127811D01*
X0149500Y0125200D02*
X0149500Y0118900D01*
X0163900Y0104500D01*
X0163671Y0107841D02*
X0164129Y0107841D01*
X0165128Y0108839D02*
X0162672Y0108839D01*
X0161674Y0109838D02*
X0166126Y0109838D01*
X0167125Y0110836D02*
X0160675Y0110836D01*
X0159677Y0111835D02*
X0168123Y0111835D01*
X0169122Y0112833D02*
X0158678Y0112833D01*
X0157679Y0113832D02*
X0170121Y0113832D01*
X0171119Y0114830D02*
X0156681Y0114830D01*
X0155682Y0115829D02*
X0172118Y0115829D01*
X0173116Y0116827D02*
X0154684Y0116827D01*
X0153685Y0117826D02*
X0174115Y0117826D01*
X0175113Y0118824D02*
X0152687Y0118824D01*
X0151700Y0119823D02*
X0176112Y0119823D01*
X0177110Y0120821D02*
X0151700Y0120821D01*
X0151700Y0121820D02*
X0178109Y0121820D01*
X0179107Y0122818D02*
X0152210Y0122818D01*
X0152824Y0123817D02*
X0195226Y0123817D01*
X0196455Y0124815D02*
X0153100Y0124815D01*
X0153100Y0125814D02*
X0199203Y0125814D01*
X0200201Y0126812D02*
X0152729Y0126812D01*
X0151980Y0127811D02*
X0201200Y0127811D01*
X0202198Y0128809D02*
X0143400Y0128809D01*
X0143400Y0129808D02*
X0203197Y0129808D01*
X0204195Y0130806D02*
X0143400Y0130806D01*
X0143400Y0131805D02*
X0205194Y0131805D01*
X0205800Y0132803D02*
X0143400Y0132803D01*
X0143400Y0133802D02*
X0205800Y0133802D01*
X0205800Y0134801D02*
X0143400Y0134801D01*
X0143400Y0135799D02*
X0205800Y0135799D01*
X0204891Y0136798D02*
X0143400Y0136798D01*
X0143400Y0137796D02*
X0204478Y0137796D01*
X0204400Y0138795D02*
X0202386Y0138795D01*
X0201700Y0137800D02*
X0207100Y0143200D01*
X0206053Y0141790D02*
X0203500Y0141790D01*
X0203500Y0140792D02*
X0205000Y0140792D01*
X0204556Y0139793D02*
X0203131Y0139793D01*
X0201700Y0137800D02*
X0187300Y0137800D01*
X0185500Y0136000D01*
X0185500Y0125200D01*
X0182800Y0118000D02*
X0194500Y0118000D01*
X0196300Y0112600D02*
X0181000Y0097300D01*
X0190900Y0094600D02*
X0194500Y0091000D01*
X0210700Y0091000D01*
X0215200Y0086500D01*
X0216000Y0086000D01*
X0220225Y0093862D02*
X0221492Y0093862D01*
X0221300Y0094860D02*
X0220500Y0094860D01*
X0216500Y0096857D02*
X0215500Y0096857D01*
X0215500Y0096500D02*
X0213800Y0096500D01*
X0213800Y0095500D01*
X0215500Y0095500D01*
X0215500Y0096500D01*
X0215500Y0095859D02*
X0213800Y0095859D01*
X0215500Y0097856D02*
X0216500Y0097856D01*
X0216500Y0098854D02*
X0215500Y0098854D01*
X0215500Y0099853D02*
X0216500Y0099853D01*
X0213489Y0099853D02*
X0212159Y0099853D01*
X0211160Y0100851D02*
X0258600Y0100851D01*
X0258600Y0101850D02*
X0210162Y0101850D01*
X0209163Y0102848D02*
X0258600Y0102848D01*
X0258600Y0103847D02*
X0208165Y0103847D01*
X0207166Y0104845D02*
X0258600Y0104845D01*
X0253206Y0099853D02*
X0248794Y0099853D01*
X0247947Y0100700D02*
X0244053Y0100700D01*
X0241300Y0097947D01*
X0241300Y0094053D01*
X0244053Y0091300D01*
X0247947Y0091300D01*
X0250700Y0094053D01*
X0250700Y0097947D01*
X0247947Y0100700D01*
X0249793Y0098854D02*
X0252207Y0098854D01*
X0251300Y0097856D02*
X0250700Y0097856D01*
X0250700Y0096857D02*
X0251300Y0096857D01*
X0251300Y0095859D02*
X0250700Y0095859D01*
X0250700Y0094860D02*
X0251300Y0094860D01*
X0251492Y0093862D02*
X0250508Y0093862D01*
X0249510Y0092863D02*
X0252490Y0092863D01*
X0253489Y0091865D02*
X0248511Y0091865D01*
X0248779Y0089868D02*
X0253221Y0089868D01*
X0252222Y0088869D02*
X0249778Y0088869D01*
X0250700Y0087870D02*
X0251300Y0087870D01*
X0251300Y0086872D02*
X0250700Y0086872D01*
X0250700Y0085873D02*
X0251300Y0085873D01*
X0251300Y0084875D02*
X0250700Y0084875D01*
X0250865Y0083876D02*
X0250523Y0083876D01*
X0241477Y0083876D02*
X0240523Y0083876D01*
X0240700Y0084875D02*
X0241300Y0084875D01*
X0241300Y0085873D02*
X0240700Y0085873D01*
X0240700Y0086872D02*
X0241300Y0086872D01*
X0241300Y0087870D02*
X0240700Y0087870D01*
X0239778Y0088869D02*
X0242222Y0088869D01*
X0243221Y0089868D02*
X0238779Y0089868D01*
X0238511Y0091865D02*
X0243489Y0091865D01*
X0242490Y0092863D02*
X0239510Y0092863D01*
X0240508Y0093862D02*
X0241492Y0093862D01*
X0241300Y0094860D02*
X0240700Y0094860D01*
X0240700Y0095859D02*
X0241300Y0095859D01*
X0241300Y0096857D02*
X0240700Y0096857D01*
X0240700Y0097856D02*
X0241300Y0097856D01*
X0242207Y0098854D02*
X0239793Y0098854D01*
X0238794Y0099853D02*
X0243206Y0099853D01*
X0258511Y0091865D02*
X0258600Y0091865D01*
X0258600Y0090866D02*
X0224745Y0090866D01*
X0203500Y0109000D02*
X0199900Y0112600D01*
X0196300Y0112600D01*
X0198100Y0109000D02*
X0190900Y0101800D01*
X0190900Y0094600D01*
X0213817Y0117826D02*
X0258600Y0117826D01*
X0258600Y0118824D02*
X0214720Y0118824D01*
X0215133Y0119823D02*
X0258600Y0119823D01*
X0258600Y0120821D02*
X0215200Y0120821D01*
X0215033Y0121820D02*
X0258600Y0121820D01*
X0258600Y0122818D02*
X0214573Y0122818D01*
X0213482Y0123817D02*
X0258600Y0123817D01*
X0258600Y0124815D02*
X0204427Y0124815D01*
X0203428Y0123817D02*
X0209718Y0123817D01*
X0206424Y0126812D02*
X0258600Y0126812D01*
X0258600Y0125814D02*
X0205425Y0125814D01*
X0207422Y0127811D02*
X0258600Y0127811D01*
X0258600Y0128809D02*
X0208421Y0128809D01*
X0209419Y0129808D02*
X0258600Y0129808D01*
X0258600Y0130806D02*
X0210200Y0130806D01*
X0210200Y0131805D02*
X0258600Y0131805D01*
X0258600Y0132803D02*
X0210200Y0132803D01*
X0210200Y0133802D02*
X0258600Y0133802D01*
X0258600Y0134801D02*
X0210200Y0134801D01*
X0210200Y0135799D02*
X0258600Y0135799D01*
X0258600Y0136798D02*
X0211109Y0136798D01*
X0211522Y0137796D02*
X0258600Y0137796D01*
X0258600Y0140792D02*
X0232820Y0140792D01*
X0234181Y0141790D02*
X0258600Y0141790D01*
X0258600Y0142789D02*
X0234753Y0142789D01*
X0235000Y0143787D02*
X0258600Y0143787D01*
X0258600Y0144786D02*
X0235000Y0144786D01*
X0234599Y0145784D02*
X0258600Y0145784D01*
X0258600Y0146783D02*
X0233809Y0146783D01*
X0233600Y0147781D02*
X0258600Y0147781D01*
X0258600Y0148780D02*
X0233600Y0148780D01*
X0233600Y0149778D02*
X0258600Y0149778D01*
X0258600Y0150777D02*
X0233600Y0150777D01*
X0233600Y0151775D02*
X0258600Y0151775D01*
X0258600Y0152774D02*
X0233600Y0152774D01*
X0233600Y0153772D02*
X0258600Y0153772D01*
X0258600Y0154771D02*
X0233600Y0154771D01*
X0233600Y0155769D02*
X0258600Y0155769D01*
X0258600Y0156768D02*
X0233600Y0156768D01*
X0233600Y0157766D02*
X0258600Y0157766D01*
X0258600Y0158765D02*
X0233600Y0158765D01*
X0233600Y0159763D02*
X0258600Y0159763D01*
X0258600Y0160762D02*
X0233600Y0160762D01*
X0238407Y0161760D02*
X0258600Y0161760D01*
X0258600Y0162759D02*
X0239406Y0162759D01*
X0240404Y0163757D02*
X0258600Y0163757D01*
X0258600Y0164756D02*
X0240700Y0164756D01*
X0240700Y0165754D02*
X0258600Y0165754D01*
X0258600Y0166753D02*
X0240700Y0166753D01*
X0240700Y0167751D02*
X0258600Y0167751D01*
X0258600Y0168750D02*
X0239897Y0168750D01*
X0238898Y0169748D02*
X0258600Y0169748D01*
X0258600Y0170747D02*
X0233200Y0170747D01*
X0233200Y0171745D02*
X0233608Y0171745D01*
X0231400Y0169300D02*
X0229600Y0171100D01*
X0231400Y0169300D02*
X0231400Y0144100D01*
X0229980Y0140792D02*
X0227420Y0140792D01*
X0226000Y0144100D02*
X0226000Y0147700D01*
X0213400Y0160300D01*
X0210843Y0157766D02*
X0197445Y0157766D01*
X0198443Y0156768D02*
X0212520Y0156768D01*
X0213400Y0154900D02*
X0209800Y0158500D01*
X0209800Y0163000D01*
X0210700Y0163900D01*
X0210700Y0171100D01*
X0217900Y0171100D01*
X0222400Y0175600D01*
X0226000Y0175600D01*
X0226000Y0176000D01*
X0226500Y0175739D02*
X0231300Y0175739D01*
X0231300Y0174741D02*
X0230500Y0174741D01*
X0230500Y0176738D02*
X0231300Y0176738D01*
X0231300Y0177737D02*
X0230500Y0177737D01*
X0226500Y0174741D02*
X0225500Y0174741D01*
X0225500Y0175739D02*
X0220700Y0175739D01*
X0220700Y0174741D02*
X0221500Y0174741D01*
X0221894Y0173742D02*
X0220389Y0173742D01*
X0219391Y0172744D02*
X0222892Y0172744D01*
X0223891Y0171745D02*
X0218392Y0171745D01*
X0218898Y0169748D02*
X0223102Y0169748D01*
X0222103Y0168750D02*
X0219897Y0168750D01*
X0220700Y0167751D02*
X0221300Y0167751D01*
X0221300Y0166753D02*
X0220700Y0166753D01*
X0220700Y0165754D02*
X0221300Y0165754D01*
X0221300Y0164756D02*
X0220700Y0164756D01*
X0220404Y0163757D02*
X0221596Y0163757D01*
X0222594Y0162759D02*
X0219406Y0162759D01*
X0218407Y0161760D02*
X0223593Y0161760D01*
X0228407Y0161760D02*
X0229200Y0161760D01*
X0229200Y0160762D02*
X0217000Y0160762D01*
X0217048Y0159763D02*
X0229200Y0159763D01*
X0229200Y0158765D02*
X0218046Y0158765D01*
X0219045Y0157766D02*
X0229200Y0157766D01*
X0229200Y0156768D02*
X0220043Y0156768D01*
X0221042Y0155769D02*
X0229200Y0155769D01*
X0229200Y0154771D02*
X0222041Y0154771D01*
X0223039Y0153772D02*
X0229200Y0153772D01*
X0229200Y0152774D02*
X0224038Y0152774D01*
X0225036Y0151775D02*
X0229200Y0151775D01*
X0229200Y0150777D02*
X0226035Y0150777D01*
X0227033Y0149778D02*
X0229200Y0149778D01*
X0229200Y0148780D02*
X0228032Y0148780D01*
X0228200Y0147781D02*
X0229200Y0147781D01*
X0228991Y0146783D02*
X0228409Y0146783D01*
X0223591Y0146783D02*
X0202100Y0146783D01*
X0202100Y0147781D02*
X0222808Y0147781D01*
X0221809Y0148780D02*
X0202100Y0148780D01*
X0202100Y0149778D02*
X0220811Y0149778D01*
X0219812Y0150777D02*
X0202100Y0150777D01*
X0202100Y0151775D02*
X0218814Y0151775D01*
X0217815Y0152774D02*
X0202100Y0152774D01*
X0201439Y0153772D02*
X0216816Y0153772D01*
X0215818Y0154771D02*
X0200441Y0154771D01*
X0199442Y0155769D02*
X0214819Y0155769D01*
X0213400Y0154900D02*
X0213400Y0143200D01*
X0222400Y0143787D02*
X0202604Y0143787D01*
X0202100Y0144786D02*
X0222400Y0144786D01*
X0222801Y0145784D02*
X0202100Y0145784D01*
X0203221Y0142789D02*
X0222647Y0142789D01*
X0210139Y0158765D02*
X0196446Y0158765D01*
X0195448Y0159763D02*
X0209800Y0159763D01*
X0209800Y0160762D02*
X0194449Y0160762D01*
X0194053Y0161300D02*
X0197947Y0161300D01*
X0200700Y0164053D01*
X0200700Y0167947D01*
X0197947Y0170700D01*
X0194053Y0170700D01*
X0191300Y0167947D01*
X0191300Y0164053D01*
X0194053Y0161300D01*
X0193593Y0161760D02*
X0193451Y0161760D01*
X0192594Y0162759D02*
X0192452Y0162759D01*
X0191596Y0163757D02*
X0191454Y0163757D01*
X0191300Y0164756D02*
X0190700Y0164756D01*
X0190700Y0165754D02*
X0191300Y0165754D01*
X0191300Y0166753D02*
X0190700Y0166753D01*
X0190700Y0167751D02*
X0191300Y0167751D01*
X0192103Y0168750D02*
X0189897Y0168750D01*
X0190900Y0171100D02*
X0195400Y0175600D01*
X0196000Y0176000D01*
X0199391Y0172744D02*
X0202892Y0172744D01*
X0201894Y0173742D02*
X0200389Y0173742D01*
X0200700Y0174741D02*
X0201500Y0174741D01*
X0200700Y0175739D02*
X0205500Y0175739D01*
X0206000Y0176000D02*
X0206200Y0175600D01*
X0210700Y0171100D01*
X0208898Y0169748D02*
X0213102Y0169748D01*
X0212103Y0168750D02*
X0209897Y0168750D01*
X0210700Y0167947D02*
X0207947Y0170700D01*
X0204053Y0170700D01*
X0201300Y0167947D01*
X0201300Y0164053D01*
X0204053Y0161300D01*
X0207947Y0161300D01*
X0210700Y0164053D01*
X0210700Y0167947D01*
X0210700Y0167751D02*
X0211300Y0167751D01*
X0211300Y0166753D02*
X0210700Y0166753D01*
X0210700Y0165754D02*
X0211300Y0165754D01*
X0211300Y0164756D02*
X0210700Y0164756D01*
X0210404Y0163757D02*
X0211596Y0163757D01*
X0210768Y0162759D02*
X0209406Y0162759D01*
X0210108Y0161760D02*
X0208407Y0161760D01*
X0203593Y0161760D02*
X0198407Y0161760D01*
X0199406Y0162759D02*
X0202594Y0162759D01*
X0201596Y0163757D02*
X0200404Y0163757D01*
X0200700Y0164756D02*
X0201300Y0164756D01*
X0201300Y0165754D02*
X0200700Y0165754D01*
X0200700Y0166753D02*
X0201300Y0166753D01*
X0201300Y0167751D02*
X0200700Y0167751D01*
X0199897Y0168750D02*
X0202103Y0168750D01*
X0203102Y0169748D02*
X0198898Y0169748D01*
X0198392Y0171745D02*
X0203891Y0171745D01*
X0205500Y0171745D02*
X0206500Y0171745D01*
X0206500Y0172744D02*
X0205500Y0172744D01*
X0205500Y0173742D02*
X0206500Y0173742D01*
X0206500Y0174741D02*
X0205500Y0174741D01*
X0206500Y0175739D02*
X0211300Y0175739D01*
X0211300Y0174741D02*
X0210500Y0174741D01*
X0210106Y0173742D02*
X0211611Y0173742D01*
X0212609Y0172744D02*
X0209108Y0172744D01*
X0208109Y0171745D02*
X0213608Y0171745D01*
X0211300Y0176738D02*
X0210500Y0176738D01*
X0210500Y0177737D02*
X0211300Y0177737D01*
X0220700Y0177737D02*
X0221500Y0177737D01*
X0221500Y0176738D02*
X0220700Y0176738D01*
X0225500Y0173742D02*
X0226500Y0173742D01*
X0226384Y0172744D02*
X0225500Y0172744D01*
X0225500Y0171745D02*
X0226000Y0171745D01*
X0226000Y0170747D02*
X0193658Y0170747D01*
X0193102Y0169748D02*
X0192660Y0169748D01*
X0190900Y0171100D02*
X0174700Y0171100D01*
X0173800Y0170200D01*
X0171100Y0170200D01*
X0167500Y0170747D02*
X0143400Y0170747D01*
X0143400Y0171745D02*
X0163891Y0171745D01*
X0162892Y0172744D02*
X0143400Y0172744D01*
X0143400Y0173742D02*
X0161894Y0173742D01*
X0161500Y0174741D02*
X0143400Y0174741D01*
X0143400Y0175739D02*
X0165500Y0175739D01*
X0165700Y0175600D02*
X0166000Y0176000D01*
X0165700Y0175600D02*
X0165700Y0172000D01*
X0161200Y0167500D01*
X0161200Y0163900D01*
X0187300Y0137800D01*
X0189480Y0140792D02*
X0143400Y0140792D01*
X0143400Y0141790D02*
X0188119Y0141790D01*
X0187547Y0142789D02*
X0143400Y0142789D01*
X0143400Y0143787D02*
X0187300Y0143787D01*
X0187300Y0144786D02*
X0143400Y0144786D01*
X0143400Y0145784D02*
X0187701Y0145784D01*
X0188491Y0146783D02*
X0143400Y0146783D01*
X0143400Y0147781D02*
X0188700Y0147781D01*
X0188700Y0148780D02*
X0143400Y0148780D01*
X0143400Y0149778D02*
X0188700Y0149778D01*
X0188700Y0150777D02*
X0143400Y0150777D01*
X0143400Y0151775D02*
X0188700Y0151775D01*
X0188700Y0152774D02*
X0143400Y0152774D01*
X0143400Y0153772D02*
X0188700Y0153772D01*
X0188662Y0154771D02*
X0188700Y0154771D01*
X0186400Y0157600D02*
X0174700Y0157600D01*
X0166600Y0165700D01*
X0166000Y0166000D01*
X0162594Y0162759D02*
X0143400Y0162759D01*
X0143400Y0163757D02*
X0161596Y0163757D01*
X0161300Y0164756D02*
X0143400Y0164756D01*
X0143400Y0165754D02*
X0161300Y0165754D01*
X0161300Y0166753D02*
X0143400Y0166753D01*
X0143400Y0167751D02*
X0161300Y0167751D01*
X0162103Y0168750D02*
X0143400Y0168750D01*
X0143400Y0169748D02*
X0163102Y0169748D01*
X0165500Y0171745D02*
X0166500Y0171745D01*
X0166500Y0172744D02*
X0165500Y0172744D01*
X0165500Y0173742D02*
X0166500Y0173742D01*
X0166500Y0174741D02*
X0165500Y0174741D01*
X0166500Y0175739D02*
X0171300Y0175739D01*
X0171300Y0174741D02*
X0170500Y0174741D01*
X0170245Y0173742D02*
X0170106Y0173742D01*
X0170500Y0176738D02*
X0171300Y0176738D01*
X0171300Y0177737D02*
X0170500Y0177737D01*
X0161500Y0177737D02*
X0143400Y0177737D01*
X0143400Y0176738D02*
X0161500Y0176738D01*
X0163593Y0161760D02*
X0143400Y0161760D01*
X0143400Y0160762D02*
X0168427Y0160762D01*
X0169425Y0159763D02*
X0143400Y0159763D01*
X0143400Y0158765D02*
X0170424Y0158765D01*
X0171422Y0157766D02*
X0143400Y0157766D01*
X0143400Y0156768D02*
X0172421Y0156768D01*
X0173419Y0155769D02*
X0143400Y0155769D01*
X0143400Y0154771D02*
X0184138Y0154771D01*
X0181000Y0161200D02*
X0176500Y0165700D01*
X0176000Y0166000D01*
X0181000Y0161200D02*
X0188200Y0161200D01*
X0190900Y0158500D01*
X0190900Y0144100D01*
X0192320Y0140792D02*
X0196300Y0140792D01*
X0196300Y0141790D02*
X0193681Y0141790D01*
X0194253Y0142789D02*
X0196579Y0142789D01*
X0197196Y0143787D02*
X0194500Y0143787D01*
X0194500Y0144786D02*
X0197700Y0144786D01*
X0197700Y0145784D02*
X0194099Y0145784D01*
X0193309Y0146783D02*
X0197700Y0146783D01*
X0197700Y0147781D02*
X0193100Y0147781D01*
X0193100Y0148780D02*
X0197700Y0148780D01*
X0197700Y0149778D02*
X0193100Y0149778D01*
X0193100Y0150777D02*
X0197700Y0150777D01*
X0197214Y0151775D02*
X0193100Y0151775D01*
X0193100Y0152774D02*
X0196215Y0152774D01*
X0195216Y0153772D02*
X0193100Y0153772D01*
X0193100Y0154771D02*
X0194218Y0154771D01*
X0193219Y0155769D02*
X0193100Y0155769D01*
X0199900Y0152200D02*
X0186400Y0165700D01*
X0186000Y0166000D01*
X0200700Y0176738D02*
X0201500Y0176738D01*
X0201500Y0177737D02*
X0200700Y0177737D01*
X0199900Y0152200D02*
X0199900Y0141400D01*
X0197414Y0138795D02*
X0143400Y0138795D01*
X0143400Y0139793D02*
X0196669Y0139793D01*
X0238392Y0171745D02*
X0258600Y0171745D01*
X0258600Y0172744D02*
X0239391Y0172744D01*
X0240389Y0173742D02*
X0258600Y0173742D01*
X0258600Y0174741D02*
X0240700Y0174741D01*
X0240700Y0175739D02*
X0258600Y0175739D01*
X0258600Y0176738D02*
X0240700Y0176738D01*
X0240700Y0177737D02*
X0258600Y0177737D01*
X0153206Y0099853D02*
X0148794Y0099853D01*
X0149793Y0098854D02*
X0152207Y0098854D01*
X0151300Y0097856D02*
X0150700Y0097856D01*
X0150700Y0096857D02*
X0151300Y0096857D01*
X0151300Y0095859D02*
X0150700Y0095859D01*
X0150700Y0094860D02*
X0151300Y0094860D01*
X0151492Y0093862D02*
X0150508Y0093862D01*
X0149510Y0092863D02*
X0152490Y0092863D01*
D12*
X0165700Y0102700D03*
X0180100Y0103600D03*
X0182800Y0118000D03*
X0185500Y0125200D03*
X0194500Y0118000D03*
X0198100Y0121600D03*
X0211600Y0120700D03*
X0203500Y0109000D03*
X0198100Y0109000D03*
X0198100Y0103600D03*
X0208000Y0138700D03*
X0213400Y0143200D03*
X0199900Y0141400D03*
X0190900Y0144100D03*
X0186400Y0157600D03*
X0171100Y0170200D03*
X0213400Y0160300D03*
X0229600Y0171100D03*
X0231400Y0144100D03*
X0226000Y0144100D03*
X0149500Y0125200D03*
M02*
