%
M48
M72
T01C0.02400
T02C0.04000
%
T01
X149500Y125200
X165700Y102700
X180100Y103600
X182800Y118000
X185500Y125200
X194500Y118000
X198100Y121600
X211600Y120700
X203500Y109000
X198100Y109000
X198100Y103600
X208000Y138700
X213400Y143200
X199900Y141400
X190900Y144100
X186400Y157600
X171100Y170200
X213400Y160300
X229600Y171100
X231400Y144100
X226000Y144100
T02
X146000Y86000
X146000Y96000
X156000Y96000
X166000Y96000
X166000Y86000
X156000Y86000
X176000Y86000
X176000Y96000
X186000Y96000
X196000Y96000
X196000Y86000
X186000Y86000
X206000Y86000
X216000Y86000
X216000Y96000
X206000Y96000
X226000Y96000
X236000Y96000
X236000Y86000
X226000Y86000
X246000Y86000
X256000Y86000
X256000Y96000
X246000Y96000
X236000Y166000
X226000Y166000
X226000Y176000
X236000Y176000
X216000Y176000
X206000Y176000
X206000Y166000
X216000Y166000
X196000Y166000
X186000Y166000
X186000Y176000
X196000Y176000
X176000Y176000
X176000Y166000
X166000Y166000
X166000Y176000
M30
