G75*
%MOIN*%
%OFA0B0*%
%FSLAX25Y25*%
%IPPOS*%
%LPD*%
%AMOC8*
5,1,8,0,0,1.08239X$1,22.5*
%
%ADD10C,0.00000*%
%ADD11C,0.00800*%
%ADD12OC8,0.06000*%
%ADD13R,0.02600X0.08000*%
%ADD14C,0.01000*%
%ADD15C,0.03800*%
D10*
X0001000Y0001000D02*
X0001000Y0315961D01*
X0394701Y0315961D01*
X0394701Y0001000D01*
X0001000Y0001000D01*
D11*
X0141000Y0076000D02*
X0141000Y0181000D01*
X0261000Y0181000D01*
X0261000Y0076000D01*
X0141000Y0076000D01*
X0143300Y0078300D02*
X0143300Y0082195D01*
X0144095Y0081400D01*
X0147905Y0081400D01*
X0150600Y0084095D01*
X0150600Y0087905D01*
X0147905Y0090600D01*
X0144095Y0090600D01*
X0143300Y0089805D01*
X0143300Y0092195D01*
X0144095Y0091400D01*
X0147905Y0091400D01*
X0150600Y0094095D01*
X0150600Y0097905D01*
X0147905Y0100600D01*
X0144095Y0100600D01*
X0143300Y0099805D01*
X0143300Y0178700D01*
X0162477Y0178700D01*
X0161600Y0177823D01*
X0161600Y0176400D01*
X0165600Y0176400D01*
X0165600Y0175600D01*
X0166400Y0175600D01*
X0166400Y0176400D01*
X0170400Y0176400D01*
X0170400Y0177823D01*
X0169523Y0178700D01*
X0172195Y0178700D01*
X0171400Y0177905D01*
X0171400Y0174095D01*
X0171795Y0173700D01*
X0170404Y0173700D01*
X0169582Y0173360D01*
X0170400Y0174177D01*
X0170400Y0175600D01*
X0166400Y0175600D01*
X0166400Y0171600D01*
X0167823Y0171600D01*
X0167940Y0171718D01*
X0167600Y0170896D01*
X0167600Y0170600D01*
X0164095Y0170600D01*
X0161400Y0167905D01*
X0161400Y0164095D01*
X0164095Y0161400D01*
X0167905Y0161400D01*
X0169718Y0163212D01*
X0170230Y0162700D01*
X0170800Y0162130D01*
X0170800Y0156063D01*
X0170463Y0156400D01*
X0166537Y0156400D01*
X0166000Y0155863D01*
X0165463Y0156400D01*
X0161537Y0156400D01*
X0161000Y0155863D01*
X0160463Y0156400D01*
X0156537Y0156400D01*
X0155859Y0155721D01*
X0155660Y0155920D01*
X0155340Y0156105D01*
X0154984Y0156200D01*
X0153750Y0156200D01*
X0153750Y0151050D01*
X0153250Y0151050D01*
X0153250Y0156200D01*
X0152016Y0156200D01*
X0151660Y0156105D01*
X0151340Y0155920D01*
X0151141Y0155721D01*
X0150463Y0156400D01*
X0146537Y0156400D01*
X0145600Y0155463D01*
X0145600Y0146137D01*
X0146500Y0145237D01*
X0146500Y0127103D01*
X0146000Y0125896D01*
X0146000Y0124504D01*
X0146533Y0123217D01*
X0147517Y0122233D01*
X0148540Y0121809D01*
X0145030Y0118300D01*
X0143800Y0117070D01*
X0143800Y0105430D01*
X0149200Y0100030D01*
X0150430Y0098800D01*
X0152295Y0098800D01*
X0151400Y0097905D01*
X0151400Y0094095D01*
X0154095Y0091400D01*
X0157830Y0091400D01*
X0158200Y0091030D01*
X0158200Y0090305D01*
X0157905Y0090600D01*
X0154095Y0090600D01*
X0151400Y0087905D01*
X0151400Y0084095D01*
X0154095Y0081400D01*
X0157905Y0081400D01*
X0159718Y0083212D01*
X0163930Y0079000D01*
X0178270Y0079000D01*
X0179500Y0080230D01*
X0182382Y0083112D01*
X0184095Y0081400D01*
X0187905Y0081400D01*
X0190600Y0084095D01*
X0190600Y0087905D01*
X0187905Y0090600D01*
X0184095Y0090600D01*
X0183100Y0089605D01*
X0183100Y0092395D01*
X0184095Y0091400D01*
X0187905Y0091400D01*
X0189518Y0093012D01*
X0192400Y0090130D01*
X0193012Y0089518D01*
X0191400Y0087905D01*
X0191400Y0084095D01*
X0194095Y0081400D01*
X0197905Y0081400D01*
X0200600Y0084095D01*
X0200600Y0087905D01*
X0199605Y0088900D01*
X0199930Y0088900D01*
X0201400Y0087430D01*
X0201400Y0084095D01*
X0204095Y0081400D01*
X0207905Y0081400D01*
X0210600Y0084095D01*
X0210600Y0087905D01*
X0207905Y0090600D01*
X0204170Y0090600D01*
X0201670Y0093100D01*
X0199605Y0093100D01*
X0200600Y0094095D01*
X0200600Y0097730D01*
X0203470Y0100600D01*
X0207430Y0100600D01*
X0204095Y0100600D01*
X0201400Y0097905D01*
X0201400Y0094095D01*
X0204095Y0091400D01*
X0207905Y0091400D01*
X0210600Y0094095D01*
X0210600Y0097830D01*
X0211570Y0098800D01*
X0212577Y0098800D01*
X0211600Y0097823D01*
X0211600Y0096400D01*
X0215600Y0096400D01*
X0215600Y0095600D01*
X0216400Y0095600D01*
X0216400Y0096400D01*
X0220400Y0096400D01*
X0220400Y0097823D01*
X0219423Y0098800D01*
X0222295Y0098800D01*
X0221400Y0097905D01*
X0221400Y0094095D01*
X0224095Y0091400D01*
X0227905Y0091400D01*
X0230600Y0094095D01*
X0230600Y0097905D01*
X0230538Y0097968D01*
X0238170Y0105600D01*
X0240463Y0105600D01*
X0241000Y0106137D01*
X0241000Y0103570D01*
X0237968Y0100538D01*
X0237905Y0100600D01*
X0234095Y0100600D01*
X0231400Y0097905D01*
X0231400Y0094095D01*
X0234095Y0091400D01*
X0237905Y0091400D01*
X0240600Y0094095D01*
X0240600Y0097230D01*
X0245200Y0101830D01*
X0245200Y0105600D01*
X0245463Y0105600D01*
X0246000Y0106137D01*
X0246400Y0105737D01*
X0246400Y0100600D01*
X0244095Y0100600D01*
X0241400Y0097905D01*
X0241400Y0094095D01*
X0244095Y0091400D01*
X0247905Y0091400D01*
X0250600Y0094095D01*
X0250600Y0105737D01*
X0251141Y0106279D01*
X0251340Y0106080D01*
X0251660Y0105895D01*
X0252016Y0105800D01*
X0253250Y0105800D01*
X0253250Y0110950D01*
X0253750Y0110950D01*
X0253750Y0111450D01*
X0253250Y0111450D01*
X0253250Y0116600D01*
X0252016Y0116600D01*
X0251660Y0116505D01*
X0251340Y0116320D01*
X0251141Y0116121D01*
X0250463Y0116800D01*
X0246537Y0116800D01*
X0246000Y0116263D01*
X0245463Y0116800D01*
X0241537Y0116800D01*
X0241000Y0116263D01*
X0240463Y0116800D01*
X0236537Y0116800D01*
X0236000Y0116263D01*
X0235463Y0116800D01*
X0231537Y0116800D01*
X0231000Y0116263D01*
X0230463Y0116800D01*
X0226537Y0116800D01*
X0226000Y0116263D01*
X0225463Y0116800D01*
X0223870Y0116800D01*
X0219100Y0121570D01*
X0217870Y0122800D01*
X0214450Y0122800D01*
X0213583Y0123667D01*
X0212296Y0124200D01*
X0210904Y0124200D01*
X0209617Y0123667D01*
X0208633Y0122683D01*
X0208209Y0121660D01*
X0200200Y0129670D01*
X0198970Y0130900D01*
X0157630Y0130900D01*
X0152891Y0126160D01*
X0152467Y0127183D01*
X0151483Y0128167D01*
X0150700Y0128491D01*
X0150700Y0145437D01*
X0151141Y0145879D01*
X0151340Y0145680D01*
X0151660Y0145495D01*
X0152016Y0145400D01*
X0153250Y0145400D01*
X0153250Y0150550D01*
X0153750Y0150550D01*
X0153750Y0145400D01*
X0154984Y0145400D01*
X0155340Y0145495D01*
X0155660Y0145680D01*
X0155859Y0145879D01*
X0156537Y0145200D01*
X0160463Y0145200D01*
X0161000Y0145737D01*
X0161537Y0145200D01*
X0165463Y0145200D01*
X0166000Y0145737D01*
X0166537Y0145200D01*
X0170463Y0145200D01*
X0171000Y0145737D01*
X0171537Y0145200D01*
X0175463Y0145200D01*
X0176000Y0145737D01*
X0176537Y0145200D01*
X0178730Y0145200D01*
X0184300Y0139630D01*
X0185530Y0138400D01*
X0193570Y0138400D01*
X0196400Y0141230D01*
X0196400Y0140704D01*
X0196933Y0139417D01*
X0197917Y0138433D01*
X0199204Y0137900D01*
X0200430Y0137900D01*
X0205330Y0133000D01*
X0211570Y0133000D01*
X0212800Y0134230D01*
X0220000Y0141430D01*
X0220000Y0145200D01*
X0220463Y0145200D01*
X0221000Y0145737D01*
X0221537Y0145200D01*
X0222667Y0145200D01*
X0222500Y0144796D01*
X0222500Y0143404D01*
X0223033Y0142117D01*
X0224017Y0141133D01*
X0225304Y0140600D01*
X0226696Y0140600D01*
X0227983Y0141133D01*
X0228700Y0141850D01*
X0229417Y0141133D01*
X0230704Y0140600D01*
X0232096Y0140600D01*
X0233383Y0141133D01*
X0234367Y0142117D01*
X0234900Y0143404D01*
X0234900Y0144630D01*
X0235300Y0145030D01*
X0235300Y0145200D01*
X0235463Y0145200D01*
X0236000Y0145737D01*
X0236537Y0145200D01*
X0240463Y0145200D01*
X0241000Y0145737D01*
X0241537Y0145200D01*
X0245463Y0145200D01*
X0246000Y0145737D01*
X0246537Y0145200D01*
X0250463Y0145200D01*
X0251000Y0145737D01*
X0251537Y0145200D01*
X0255463Y0145200D01*
X0256400Y0146137D01*
X0256400Y0155463D01*
X0255463Y0156400D01*
X0253570Y0156400D01*
X0242170Y0167800D01*
X0240600Y0167800D01*
X0240600Y0167905D01*
X0237905Y0170600D01*
X0237470Y0170600D01*
X0238000Y0171130D01*
X0238000Y0171495D01*
X0240600Y0174095D01*
X0240600Y0177905D01*
X0239805Y0178700D01*
X0258700Y0178700D01*
X0258700Y0099805D01*
X0257905Y0100600D01*
X0254095Y0100600D01*
X0251400Y0097905D01*
X0251400Y0094095D01*
X0254095Y0091400D01*
X0257905Y0091400D01*
X0258700Y0092195D01*
X0258700Y0089805D01*
X0257905Y0090600D01*
X0254095Y0090600D01*
X0251400Y0087905D01*
X0251400Y0084095D01*
X0254095Y0081400D01*
X0257905Y0081400D01*
X0258700Y0082195D01*
X0258700Y0078300D01*
X0143300Y0078300D01*
X0143300Y0078456D02*
X0258700Y0078456D01*
X0258700Y0079254D02*
X0178524Y0079254D01*
X0179322Y0080053D02*
X0258700Y0080053D01*
X0258700Y0080851D02*
X0180121Y0080851D01*
X0180919Y0081650D02*
X0183845Y0081650D01*
X0183046Y0082448D02*
X0181718Y0082448D01*
X0188155Y0081650D02*
X0193845Y0081650D01*
X0193046Y0082448D02*
X0188954Y0082448D01*
X0189752Y0083247D02*
X0192248Y0083247D01*
X0191449Y0084045D02*
X0190551Y0084045D01*
X0190600Y0084844D02*
X0191400Y0084844D01*
X0191400Y0085642D02*
X0190600Y0085642D01*
X0190600Y0086441D02*
X0191400Y0086441D01*
X0191400Y0087239D02*
X0190600Y0087239D01*
X0190468Y0088038D02*
X0191532Y0088038D01*
X0192331Y0088836D02*
X0189669Y0088836D01*
X0188871Y0089635D02*
X0192895Y0089635D01*
X0192097Y0090433D02*
X0188072Y0090433D01*
X0188536Y0092030D02*
X0190500Y0092030D01*
X0191298Y0091232D02*
X0183100Y0091232D01*
X0183100Y0092030D02*
X0183464Y0092030D01*
X0183100Y0090433D02*
X0183928Y0090433D01*
X0183129Y0089635D02*
X0183100Y0089635D01*
X0189334Y0092829D02*
X0189701Y0092829D01*
X0200133Y0093627D02*
X0201867Y0093627D01*
X0201941Y0092829D02*
X0202666Y0092829D01*
X0202740Y0092030D02*
X0203464Y0092030D01*
X0203538Y0091232D02*
X0258700Y0091232D01*
X0258700Y0092030D02*
X0258536Y0092030D01*
X0258700Y0090433D02*
X0258072Y0090433D01*
X0253928Y0090433D02*
X0248072Y0090433D01*
X0247905Y0090600D02*
X0244095Y0090600D01*
X0241400Y0087905D01*
X0241400Y0084095D01*
X0244095Y0081400D01*
X0247905Y0081400D01*
X0250600Y0084095D01*
X0250600Y0087905D01*
X0247905Y0090600D01*
X0248871Y0089635D02*
X0253129Y0089635D01*
X0252331Y0088836D02*
X0249669Y0088836D01*
X0250468Y0088038D02*
X0251532Y0088038D01*
X0251400Y0087239D02*
X0250600Y0087239D01*
X0250600Y0086441D02*
X0251400Y0086441D01*
X0251400Y0085642D02*
X0250600Y0085642D01*
X0250600Y0084844D02*
X0251400Y0084844D01*
X0251449Y0084045D02*
X0250551Y0084045D01*
X0249752Y0083247D02*
X0252248Y0083247D01*
X0253046Y0082448D02*
X0248954Y0082448D01*
X0248155Y0081650D02*
X0253845Y0081650D01*
X0258155Y0081650D02*
X0258700Y0081650D01*
X0253464Y0092030D02*
X0248536Y0092030D01*
X0249334Y0092829D02*
X0252666Y0092829D01*
X0251867Y0093627D02*
X0250133Y0093627D01*
X0250600Y0094426D02*
X0251400Y0094426D01*
X0251400Y0095224D02*
X0250600Y0095224D01*
X0250600Y0096023D02*
X0251400Y0096023D01*
X0251400Y0096821D02*
X0250600Y0096821D01*
X0250600Y0097620D02*
X0251400Y0097620D01*
X0251913Y0098418D02*
X0250600Y0098418D01*
X0250600Y0099217D02*
X0252712Y0099217D01*
X0253510Y0100015D02*
X0250600Y0100015D01*
X0250600Y0100814D02*
X0258700Y0100814D01*
X0258700Y0101612D02*
X0250600Y0101612D01*
X0250600Y0102411D02*
X0258700Y0102411D01*
X0258700Y0103209D02*
X0250600Y0103209D01*
X0250600Y0104008D02*
X0258700Y0104008D01*
X0258700Y0104806D02*
X0250600Y0104806D01*
X0250600Y0105605D02*
X0258700Y0105605D01*
X0258700Y0106403D02*
X0255957Y0106403D01*
X0255920Y0106340D02*
X0256105Y0106660D01*
X0256200Y0107016D01*
X0256200Y0110950D01*
X0253750Y0110950D01*
X0253750Y0105800D01*
X0254984Y0105800D01*
X0255340Y0105895D01*
X0255660Y0106080D01*
X0255920Y0106340D01*
X0256200Y0107202D02*
X0258700Y0107202D01*
X0258700Y0108001D02*
X0256200Y0108001D01*
X0256200Y0108799D02*
X0258700Y0108799D01*
X0258700Y0109598D02*
X0256200Y0109598D01*
X0256200Y0110396D02*
X0258700Y0110396D01*
X0258700Y0111195D02*
X0253750Y0111195D01*
X0253750Y0111450D02*
X0256200Y0111450D01*
X0256200Y0115384D01*
X0256105Y0115740D01*
X0255920Y0116060D01*
X0255660Y0116320D01*
X0255340Y0116505D01*
X0254984Y0116600D01*
X0253750Y0116600D01*
X0253750Y0111450D01*
X0253750Y0111993D02*
X0253250Y0111993D01*
X0253250Y0112792D02*
X0253750Y0112792D01*
X0253750Y0113590D02*
X0253250Y0113590D01*
X0253250Y0114389D02*
X0253750Y0114389D01*
X0253750Y0115187D02*
X0253250Y0115187D01*
X0253250Y0115986D02*
X0253750Y0115986D01*
X0255963Y0115986D02*
X0258700Y0115986D01*
X0258700Y0116784D02*
X0250479Y0116784D01*
X0246521Y0116784D02*
X0245479Y0116784D01*
X0241521Y0116784D02*
X0240479Y0116784D01*
X0236521Y0116784D02*
X0235479Y0116784D01*
X0231521Y0116784D02*
X0230479Y0116784D01*
X0226521Y0116784D02*
X0225479Y0116784D01*
X0223087Y0117583D02*
X0258700Y0117583D01*
X0258700Y0118381D02*
X0222289Y0118381D01*
X0221490Y0119180D02*
X0258700Y0119180D01*
X0258700Y0119978D02*
X0220692Y0119978D01*
X0219893Y0120777D02*
X0258700Y0120777D01*
X0258700Y0121575D02*
X0219095Y0121575D01*
X0218296Y0122374D02*
X0258700Y0122374D01*
X0258700Y0123172D02*
X0214077Y0123172D01*
X0212850Y0123971D02*
X0258700Y0123971D01*
X0258700Y0124769D02*
X0205101Y0124769D01*
X0205899Y0123971D02*
X0210350Y0123971D01*
X0209122Y0123172D02*
X0206698Y0123172D01*
X0207496Y0122374D02*
X0208505Y0122374D01*
X0204302Y0125568D02*
X0258700Y0125568D01*
X0258700Y0126366D02*
X0203504Y0126366D01*
X0202705Y0127165D02*
X0258700Y0127165D01*
X0258700Y0127963D02*
X0201907Y0127963D01*
X0201108Y0128762D02*
X0258700Y0128762D01*
X0258700Y0129560D02*
X0200310Y0129560D01*
X0199511Y0130359D02*
X0258700Y0130359D01*
X0258700Y0131157D02*
X0150700Y0131157D01*
X0150700Y0130359D02*
X0157089Y0130359D01*
X0156290Y0129560D02*
X0150700Y0129560D01*
X0150700Y0128762D02*
X0155492Y0128762D01*
X0154693Y0127963D02*
X0151686Y0127963D01*
X0152475Y0127165D02*
X0153895Y0127165D01*
X0153096Y0126366D02*
X0152805Y0126366D01*
X0155842Y0123172D02*
X0194963Y0123172D01*
X0195133Y0123583D02*
X0194600Y0122296D01*
X0194600Y0121500D01*
X0193804Y0121500D01*
X0192517Y0120967D01*
X0191533Y0119983D01*
X0191000Y0118696D01*
X0191000Y0117304D01*
X0191394Y0116351D01*
X0191340Y0116320D01*
X0191141Y0116121D01*
X0190463Y0116800D01*
X0186537Y0116800D01*
X0186000Y0116263D01*
X0185907Y0116356D01*
X0186300Y0117304D01*
X0186300Y0118696D01*
X0185767Y0119983D01*
X0184783Y0120967D01*
X0183496Y0121500D01*
X0182104Y0121500D01*
X0180817Y0120967D01*
X0179833Y0119983D01*
X0179300Y0118696D01*
X0179300Y0117470D01*
X0178630Y0116800D01*
X0176537Y0116800D01*
X0176000Y0116263D01*
X0175463Y0116800D01*
X0171537Y0116800D01*
X0171000Y0116263D01*
X0170463Y0116800D01*
X0166537Y0116800D01*
X0165859Y0116121D01*
X0165660Y0116320D01*
X0165340Y0116505D01*
X0164984Y0116600D01*
X0163750Y0116600D01*
X0163750Y0111450D01*
X0163250Y0111450D01*
X0163250Y0116600D01*
X0162016Y0116600D01*
X0161660Y0116505D01*
X0161340Y0116320D01*
X0161080Y0116060D01*
X0161000Y0115922D01*
X0160920Y0116060D01*
X0160660Y0116320D01*
X0160340Y0116505D01*
X0159984Y0116600D01*
X0158750Y0116600D01*
X0158750Y0111450D01*
X0158250Y0111450D01*
X0158250Y0116600D01*
X0157016Y0116600D01*
X0156660Y0116505D01*
X0156340Y0116320D01*
X0156080Y0116060D01*
X0156000Y0115922D01*
X0155920Y0116060D01*
X0155660Y0116320D01*
X0155340Y0116505D01*
X0154984Y0116600D01*
X0153750Y0116600D01*
X0153750Y0111450D01*
X0158250Y0111450D01*
X0158250Y0110950D01*
X0155800Y0110950D01*
X0153750Y0110950D01*
X0153750Y0111450D01*
X0153250Y0111450D01*
X0153250Y0116600D01*
X0152016Y0116600D01*
X0151660Y0116505D01*
X0151340Y0116320D01*
X0151141Y0116121D01*
X0150463Y0116800D01*
X0149470Y0116800D01*
X0159370Y0126700D01*
X0197230Y0126700D01*
X0198854Y0125076D01*
X0198796Y0125100D01*
X0197404Y0125100D01*
X0196117Y0124567D01*
X0195133Y0123583D01*
X0195521Y0123971D02*
X0156641Y0123971D01*
X0157439Y0124769D02*
X0196605Y0124769D01*
X0197564Y0126366D02*
X0159036Y0126366D01*
X0158238Y0125568D02*
X0198362Y0125568D01*
X0194632Y0122374D02*
X0155044Y0122374D01*
X0154245Y0121575D02*
X0194600Y0121575D01*
X0192327Y0120777D02*
X0184973Y0120777D01*
X0185769Y0119978D02*
X0191531Y0119978D01*
X0191200Y0119180D02*
X0186100Y0119180D01*
X0186300Y0118381D02*
X0191000Y0118381D01*
X0191000Y0117583D02*
X0186300Y0117583D01*
X0186085Y0116784D02*
X0186521Y0116784D01*
X0190479Y0116784D02*
X0191215Y0116784D01*
X0180627Y0120777D02*
X0153447Y0120777D01*
X0152648Y0119978D02*
X0179831Y0119978D01*
X0179500Y0119180D02*
X0151850Y0119180D01*
X0151051Y0118381D02*
X0179300Y0118381D01*
X0179300Y0117583D02*
X0150252Y0117583D01*
X0150479Y0116784D02*
X0166521Y0116784D01*
X0163750Y0115986D02*
X0163250Y0115986D01*
X0163250Y0115187D02*
X0163750Y0115187D01*
X0163750Y0114389D02*
X0163250Y0114389D01*
X0163250Y0113590D02*
X0163750Y0113590D01*
X0163750Y0112792D02*
X0163250Y0112792D01*
X0163250Y0111993D02*
X0163750Y0111993D01*
X0163250Y0111450D02*
X0163250Y0110950D01*
X0163750Y0110950D01*
X0163750Y0105800D01*
X0164038Y0105800D01*
X0163717Y0105667D01*
X0162850Y0104800D01*
X0154870Y0104800D01*
X0153870Y0105800D01*
X0154984Y0105800D01*
X0155340Y0105895D01*
X0155660Y0106080D01*
X0155920Y0106340D01*
X0156000Y0106478D01*
X0156080Y0106340D01*
X0156340Y0106080D01*
X0156660Y0105895D01*
X0157016Y0105800D01*
X0158250Y0105800D01*
X0158250Y0110950D01*
X0158750Y0110950D01*
X0158750Y0111450D01*
X0163250Y0111450D01*
X0163250Y0111195D02*
X0158750Y0111195D01*
X0158750Y0110950D02*
X0161200Y0110950D01*
X0163250Y0110950D01*
X0163250Y0105800D01*
X0162016Y0105800D01*
X0161660Y0105895D01*
X0161340Y0106080D01*
X0161080Y0106340D01*
X0161000Y0106478D01*
X0160920Y0106340D01*
X0160660Y0106080D01*
X0160340Y0105895D01*
X0159984Y0105800D01*
X0158750Y0105800D01*
X0158750Y0110950D01*
X0158750Y0110396D02*
X0158250Y0110396D01*
X0158250Y0109598D02*
X0158750Y0109598D01*
X0158750Y0108799D02*
X0158250Y0108799D01*
X0158250Y0108001D02*
X0158750Y0108001D01*
X0158750Y0107202D02*
X0158250Y0107202D01*
X0158250Y0106403D02*
X0158750Y0106403D01*
X0160957Y0106403D02*
X0161043Y0106403D01*
X0163250Y0106403D02*
X0163750Y0106403D01*
X0163750Y0107202D02*
X0163250Y0107202D01*
X0163250Y0108001D02*
X0163750Y0108001D01*
X0163750Y0108799D02*
X0163250Y0108799D01*
X0163250Y0109598D02*
X0163750Y0109598D01*
X0163750Y0110396D02*
X0163250Y0110396D01*
X0158750Y0111993D02*
X0158250Y0111993D01*
X0158250Y0111195D02*
X0153750Y0111195D01*
X0153750Y0111993D02*
X0153250Y0111993D01*
X0153250Y0112792D02*
X0153750Y0112792D01*
X0153750Y0113590D02*
X0153250Y0113590D01*
X0153250Y0114389D02*
X0153750Y0114389D01*
X0153750Y0115187D02*
X0153250Y0115187D01*
X0153250Y0115986D02*
X0153750Y0115986D01*
X0155963Y0115986D02*
X0156037Y0115986D01*
X0158250Y0115986D02*
X0158750Y0115986D01*
X0158750Y0115187D02*
X0158250Y0115187D01*
X0158250Y0114389D02*
X0158750Y0114389D01*
X0158750Y0113590D02*
X0158250Y0113590D01*
X0158250Y0112792D02*
X0158750Y0112792D01*
X0160963Y0115986D02*
X0161037Y0115986D01*
X0170479Y0116784D02*
X0171521Y0116784D01*
X0175479Y0116784D02*
X0176521Y0116784D01*
X0163655Y0105605D02*
X0154065Y0105605D01*
X0154863Y0104806D02*
X0162857Y0104806D01*
X0156043Y0106403D02*
X0155957Y0106403D01*
X0151913Y0098418D02*
X0150087Y0098418D01*
X0150013Y0099217D02*
X0149288Y0099217D01*
X0149215Y0100015D02*
X0148490Y0100015D01*
X0148416Y0100814D02*
X0143300Y0100814D01*
X0143300Y0101612D02*
X0147618Y0101612D01*
X0146819Y0102411D02*
X0143300Y0102411D01*
X0143300Y0103209D02*
X0146021Y0103209D01*
X0145222Y0104008D02*
X0143300Y0104008D01*
X0143300Y0104806D02*
X0144424Y0104806D01*
X0143800Y0105605D02*
X0143300Y0105605D01*
X0143300Y0106403D02*
X0143800Y0106403D01*
X0143800Y0107202D02*
X0143300Y0107202D01*
X0143300Y0108001D02*
X0143800Y0108001D01*
X0143800Y0108799D02*
X0143300Y0108799D01*
X0143300Y0109598D02*
X0143800Y0109598D01*
X0143800Y0110396D02*
X0143300Y0110396D01*
X0143300Y0111195D02*
X0143800Y0111195D01*
X0143800Y0111993D02*
X0143300Y0111993D01*
X0143300Y0112792D02*
X0143800Y0112792D01*
X0143800Y0113590D02*
X0143300Y0113590D01*
X0143300Y0114389D02*
X0143800Y0114389D01*
X0143800Y0115187D02*
X0143300Y0115187D01*
X0143300Y0115986D02*
X0143800Y0115986D01*
X0143800Y0116784D02*
X0143300Y0116784D01*
X0143300Y0117583D02*
X0144313Y0117583D01*
X0145111Y0118381D02*
X0143300Y0118381D01*
X0143300Y0119180D02*
X0145910Y0119180D01*
X0146708Y0119978D02*
X0143300Y0119978D01*
X0143300Y0120777D02*
X0147507Y0120777D01*
X0148305Y0121575D02*
X0143300Y0121575D01*
X0143300Y0122374D02*
X0147377Y0122374D01*
X0146578Y0123172D02*
X0143300Y0123172D01*
X0143300Y0123971D02*
X0146221Y0123971D01*
X0146000Y0124769D02*
X0143300Y0124769D01*
X0143300Y0125568D02*
X0146000Y0125568D01*
X0146195Y0126366D02*
X0143300Y0126366D01*
X0143300Y0127165D02*
X0146500Y0127165D01*
X0146500Y0127963D02*
X0143300Y0127963D01*
X0143300Y0128762D02*
X0146500Y0128762D01*
X0146500Y0129560D02*
X0143300Y0129560D01*
X0143300Y0130359D02*
X0146500Y0130359D01*
X0146500Y0131157D02*
X0143300Y0131157D01*
X0143300Y0131956D02*
X0146500Y0131956D01*
X0146500Y0132754D02*
X0143300Y0132754D01*
X0143300Y0133553D02*
X0146500Y0133553D01*
X0146500Y0134351D02*
X0143300Y0134351D01*
X0143300Y0135150D02*
X0146500Y0135150D01*
X0146500Y0135948D02*
X0143300Y0135948D01*
X0143300Y0136747D02*
X0146500Y0136747D01*
X0146500Y0137545D02*
X0143300Y0137545D01*
X0143300Y0138344D02*
X0146500Y0138344D01*
X0146500Y0139142D02*
X0143300Y0139142D01*
X0143300Y0139941D02*
X0146500Y0139941D01*
X0146500Y0140739D02*
X0143300Y0140739D01*
X0143300Y0141538D02*
X0146500Y0141538D01*
X0146500Y0142337D02*
X0143300Y0142337D01*
X0143300Y0143135D02*
X0146500Y0143135D01*
X0146500Y0143934D02*
X0143300Y0143934D01*
X0143300Y0144732D02*
X0146500Y0144732D01*
X0146207Y0145531D02*
X0143300Y0145531D01*
X0143300Y0146329D02*
X0145600Y0146329D01*
X0145600Y0147128D02*
X0143300Y0147128D01*
X0143300Y0147926D02*
X0145600Y0147926D01*
X0145600Y0148725D02*
X0143300Y0148725D01*
X0143300Y0149523D02*
X0145600Y0149523D01*
X0145600Y0150322D02*
X0143300Y0150322D01*
X0143300Y0151120D02*
X0145600Y0151120D01*
X0145600Y0151919D02*
X0143300Y0151919D01*
X0143300Y0152717D02*
X0145600Y0152717D01*
X0145600Y0153516D02*
X0143300Y0153516D01*
X0143300Y0154314D02*
X0145600Y0154314D01*
X0145600Y0155113D02*
X0143300Y0155113D01*
X0143300Y0155911D02*
X0146048Y0155911D01*
X0143300Y0156710D02*
X0170800Y0156710D01*
X0170800Y0157508D02*
X0143300Y0157508D01*
X0143300Y0158307D02*
X0170800Y0158307D01*
X0170800Y0159105D02*
X0143300Y0159105D01*
X0143300Y0159904D02*
X0170800Y0159904D01*
X0170800Y0160702D02*
X0143300Y0160702D01*
X0143300Y0161501D02*
X0163994Y0161501D01*
X0163195Y0162299D02*
X0143300Y0162299D01*
X0143300Y0163098D02*
X0162397Y0163098D01*
X0161598Y0163896D02*
X0143300Y0163896D01*
X0143300Y0164695D02*
X0161400Y0164695D01*
X0161400Y0165493D02*
X0143300Y0165493D01*
X0143300Y0166292D02*
X0161400Y0166292D01*
X0161400Y0167090D02*
X0143300Y0167090D01*
X0143300Y0167889D02*
X0161400Y0167889D01*
X0162182Y0168687D02*
X0143300Y0168687D01*
X0143300Y0169486D02*
X0162981Y0169486D01*
X0163779Y0170284D02*
X0143300Y0170284D01*
X0143300Y0171083D02*
X0167677Y0171083D01*
X0166400Y0171881D02*
X0165600Y0171881D01*
X0165600Y0171600D02*
X0165600Y0175600D01*
X0161600Y0175600D01*
X0161600Y0174177D01*
X0164177Y0171600D01*
X0165600Y0171600D01*
X0165600Y0172680D02*
X0166400Y0172680D01*
X0166400Y0173478D02*
X0165600Y0173478D01*
X0165600Y0174277D02*
X0166400Y0174277D01*
X0166400Y0175075D02*
X0165600Y0175075D01*
X0165600Y0175874D02*
X0143300Y0175874D01*
X0143300Y0176672D02*
X0161600Y0176672D01*
X0161600Y0177471D02*
X0143300Y0177471D01*
X0143300Y0178270D02*
X0162047Y0178270D01*
X0161600Y0175075D02*
X0143300Y0175075D01*
X0143300Y0174277D02*
X0161600Y0174277D01*
X0162299Y0173478D02*
X0143300Y0173478D01*
X0143300Y0172680D02*
X0163098Y0172680D01*
X0163896Y0171881D02*
X0143300Y0171881D01*
X0150952Y0155911D02*
X0151331Y0155911D01*
X0153250Y0155911D02*
X0153750Y0155911D01*
X0153750Y0155113D02*
X0153250Y0155113D01*
X0153250Y0154314D02*
X0153750Y0154314D01*
X0153750Y0153516D02*
X0153250Y0153516D01*
X0153250Y0152717D02*
X0153750Y0152717D01*
X0153750Y0151919D02*
X0153250Y0151919D01*
X0153250Y0151120D02*
X0153750Y0151120D01*
X0153750Y0150322D02*
X0153250Y0150322D01*
X0153250Y0149523D02*
X0153750Y0149523D01*
X0153750Y0148725D02*
X0153250Y0148725D01*
X0153250Y0147926D02*
X0153750Y0147926D01*
X0153750Y0147128D02*
X0153250Y0147128D01*
X0153250Y0146329D02*
X0153750Y0146329D01*
X0153750Y0145531D02*
X0153250Y0145531D01*
X0151599Y0145531D02*
X0150793Y0145531D01*
X0150700Y0144732D02*
X0179198Y0144732D01*
X0179997Y0143934D02*
X0150700Y0143934D01*
X0150700Y0143135D02*
X0180795Y0143135D01*
X0181594Y0142337D02*
X0150700Y0142337D01*
X0150700Y0141538D02*
X0182392Y0141538D01*
X0183191Y0140739D02*
X0150700Y0140739D01*
X0150700Y0139941D02*
X0183989Y0139941D01*
X0184788Y0139142D02*
X0150700Y0139142D01*
X0150700Y0138344D02*
X0198132Y0138344D01*
X0197208Y0139142D02*
X0194312Y0139142D01*
X0195111Y0139941D02*
X0196716Y0139941D01*
X0196400Y0140739D02*
X0195909Y0140739D01*
X0200785Y0137545D02*
X0150700Y0137545D01*
X0150700Y0136747D02*
X0201583Y0136747D01*
X0202382Y0135948D02*
X0150700Y0135948D01*
X0150700Y0135150D02*
X0203180Y0135150D01*
X0203979Y0134351D02*
X0150700Y0134351D01*
X0150700Y0133553D02*
X0204777Y0133553D01*
X0212123Y0133553D02*
X0258700Y0133553D01*
X0258700Y0134351D02*
X0212921Y0134351D01*
X0213720Y0135150D02*
X0258700Y0135150D01*
X0258700Y0135948D02*
X0214518Y0135948D01*
X0215317Y0136747D02*
X0258700Y0136747D01*
X0258700Y0137545D02*
X0216115Y0137545D01*
X0216914Y0138344D02*
X0258700Y0138344D01*
X0258700Y0139142D02*
X0217712Y0139142D01*
X0218511Y0139941D02*
X0258700Y0139941D01*
X0258700Y0140739D02*
X0232433Y0140739D01*
X0233788Y0141538D02*
X0258700Y0141538D01*
X0258700Y0142337D02*
X0234458Y0142337D01*
X0234789Y0143135D02*
X0258700Y0143135D01*
X0258700Y0143934D02*
X0234900Y0143934D01*
X0235002Y0144732D02*
X0258700Y0144732D01*
X0258700Y0145531D02*
X0255793Y0145531D01*
X0256400Y0146329D02*
X0258700Y0146329D01*
X0258700Y0147128D02*
X0256400Y0147128D01*
X0256400Y0147926D02*
X0258700Y0147926D01*
X0258700Y0148725D02*
X0256400Y0148725D01*
X0256400Y0149523D02*
X0258700Y0149523D01*
X0258700Y0150322D02*
X0256400Y0150322D01*
X0256400Y0151120D02*
X0258700Y0151120D01*
X0258700Y0151919D02*
X0256400Y0151919D01*
X0256400Y0152717D02*
X0258700Y0152717D01*
X0258700Y0153516D02*
X0256400Y0153516D01*
X0256400Y0154314D02*
X0258700Y0154314D01*
X0258700Y0155113D02*
X0256400Y0155113D01*
X0255952Y0155911D02*
X0258700Y0155911D01*
X0258700Y0156710D02*
X0253260Y0156710D01*
X0252462Y0157508D02*
X0258700Y0157508D01*
X0258700Y0158307D02*
X0251663Y0158307D01*
X0250865Y0159105D02*
X0258700Y0159105D01*
X0258700Y0159904D02*
X0250066Y0159904D01*
X0249268Y0160702D02*
X0258700Y0160702D01*
X0258700Y0161501D02*
X0248469Y0161501D01*
X0247671Y0162299D02*
X0258700Y0162299D01*
X0258700Y0163098D02*
X0246872Y0163098D01*
X0246074Y0163896D02*
X0258700Y0163896D01*
X0258700Y0164695D02*
X0245275Y0164695D01*
X0244477Y0165493D02*
X0258700Y0165493D01*
X0258700Y0166292D02*
X0243678Y0166292D01*
X0242879Y0167090D02*
X0258700Y0167090D01*
X0258700Y0167889D02*
X0240600Y0167889D01*
X0239818Y0168687D02*
X0258700Y0168687D01*
X0258700Y0169486D02*
X0239019Y0169486D01*
X0238221Y0170284D02*
X0258700Y0170284D01*
X0258700Y0171083D02*
X0237953Y0171083D01*
X0238387Y0171881D02*
X0258700Y0171881D01*
X0258700Y0172680D02*
X0239185Y0172680D01*
X0239984Y0173478D02*
X0258700Y0173478D01*
X0258700Y0174277D02*
X0240600Y0174277D01*
X0240600Y0175075D02*
X0258700Y0175075D01*
X0258700Y0175874D02*
X0240600Y0175874D01*
X0240600Y0176672D02*
X0258700Y0176672D01*
X0258700Y0177471D02*
X0240600Y0177471D01*
X0240236Y0178270D02*
X0258700Y0178270D01*
X0232195Y0178700D02*
X0231400Y0177905D01*
X0231400Y0174143D01*
X0230400Y0174557D01*
X0230400Y0175600D01*
X0226400Y0175600D01*
X0226400Y0176400D01*
X0230400Y0176400D01*
X0230400Y0177823D01*
X0229523Y0178700D01*
X0232195Y0178700D01*
X0231764Y0178270D02*
X0229953Y0178270D01*
X0230400Y0177471D02*
X0231400Y0177471D01*
X0231400Y0176672D02*
X0230400Y0176672D01*
X0231400Y0175874D02*
X0226400Y0175874D01*
X0225600Y0175874D02*
X0220600Y0175874D01*
X0220600Y0176672D02*
X0221600Y0176672D01*
X0221600Y0176400D02*
X0225600Y0176400D01*
X0225600Y0175600D01*
X0221600Y0175600D01*
X0221600Y0174177D01*
X0222577Y0173200D01*
X0221470Y0173200D01*
X0220588Y0174082D01*
X0220600Y0174095D01*
X0220600Y0177905D01*
X0219805Y0178700D01*
X0222477Y0178700D01*
X0221600Y0177823D01*
X0221600Y0176400D01*
X0221600Y0177471D02*
X0220600Y0177471D01*
X0220236Y0178270D02*
X0222047Y0178270D01*
X0221600Y0175075D02*
X0220600Y0175075D01*
X0220600Y0174277D02*
X0221600Y0174277D01*
X0221191Y0173478D02*
X0222299Y0173478D01*
X0222495Y0169000D02*
X0219730Y0169000D01*
X0217330Y0171400D01*
X0214095Y0171400D01*
X0211400Y0174095D01*
X0211400Y0177905D01*
X0212195Y0178700D01*
X0209523Y0178700D01*
X0210400Y0177823D01*
X0210400Y0176400D01*
X0206400Y0176400D01*
X0206400Y0175600D01*
X0210400Y0175600D01*
X0210400Y0174177D01*
X0207823Y0171600D01*
X0206400Y0171600D01*
X0206400Y0175600D01*
X0205600Y0175600D01*
X0205600Y0171600D01*
X0204177Y0171600D01*
X0201600Y0174177D01*
X0201600Y0175600D01*
X0205600Y0175600D01*
X0205600Y0176400D01*
X0201600Y0176400D01*
X0201600Y0177823D01*
X0202477Y0178700D01*
X0199805Y0178700D01*
X0200600Y0177905D01*
X0200600Y0174095D01*
X0197905Y0171400D01*
X0194095Y0171400D01*
X0191400Y0174095D01*
X0191400Y0177905D01*
X0192195Y0178700D01*
X0189805Y0178700D01*
X0190600Y0177905D01*
X0190600Y0174370D01*
X0193000Y0171970D01*
X0193000Y0169505D01*
X0194095Y0170600D01*
X0197905Y0170600D01*
X0200600Y0167905D01*
X0200600Y0164370D01*
X0206170Y0158800D01*
X0210130Y0158800D01*
X0207530Y0161400D01*
X0204095Y0161400D01*
X0201400Y0164095D01*
X0201400Y0167905D01*
X0204095Y0170600D01*
X0207905Y0170600D01*
X0210600Y0167905D01*
X0210600Y0164270D01*
X0211548Y0163321D01*
X0211990Y0163504D01*
X0211400Y0164095D01*
X0211400Y0167905D01*
X0214095Y0170600D01*
X0217905Y0170600D01*
X0220600Y0167905D01*
X0220600Y0164170D01*
X0225070Y0159700D01*
X0229030Y0159700D01*
X0227330Y0161400D01*
X0224095Y0161400D01*
X0221400Y0164095D01*
X0221400Y0167905D01*
X0222495Y0169000D01*
X0222182Y0168687D02*
X0219818Y0168687D01*
X0219244Y0169486D02*
X0219019Y0169486D01*
X0218446Y0170284D02*
X0218221Y0170284D01*
X0217647Y0171083D02*
X0193000Y0171083D01*
X0193000Y0171881D02*
X0193613Y0171881D01*
X0192815Y0172680D02*
X0192290Y0172680D01*
X0192016Y0173478D02*
X0191491Y0173478D01*
X0191400Y0174277D02*
X0190693Y0174277D01*
X0190600Y0175075D02*
X0191400Y0175075D01*
X0191400Y0175874D02*
X0190600Y0175874D01*
X0190600Y0176672D02*
X0191400Y0176672D01*
X0191400Y0177471D02*
X0190600Y0177471D01*
X0190236Y0178270D02*
X0191764Y0178270D01*
X0200236Y0178270D02*
X0202047Y0178270D01*
X0201600Y0177471D02*
X0200600Y0177471D01*
X0200600Y0176672D02*
X0201600Y0176672D01*
X0200600Y0175874D02*
X0205600Y0175874D01*
X0205600Y0175075D02*
X0206400Y0175075D01*
X0206400Y0174277D02*
X0205600Y0174277D01*
X0205600Y0173478D02*
X0206400Y0173478D01*
X0206400Y0172680D02*
X0205600Y0172680D01*
X0205600Y0171881D02*
X0206400Y0171881D01*
X0208104Y0171881D02*
X0213613Y0171881D01*
X0212815Y0172680D02*
X0208902Y0172680D01*
X0209701Y0173478D02*
X0212016Y0173478D01*
X0211400Y0174277D02*
X0210400Y0174277D01*
X0210400Y0175075D02*
X0211400Y0175075D01*
X0211400Y0175874D02*
X0206400Y0175874D01*
X0210400Y0176672D02*
X0211400Y0176672D01*
X0211400Y0177471D02*
X0210400Y0177471D01*
X0209953Y0178270D02*
X0211764Y0178270D01*
X0203896Y0171881D02*
X0198387Y0171881D01*
X0199185Y0172680D02*
X0203098Y0172680D01*
X0202299Y0173478D02*
X0199984Y0173478D01*
X0200600Y0174277D02*
X0201600Y0174277D01*
X0201600Y0175075D02*
X0200600Y0175075D01*
X0198221Y0170284D02*
X0203779Y0170284D01*
X0202981Y0169486D02*
X0199019Y0169486D01*
X0199818Y0168687D02*
X0202182Y0168687D01*
X0201400Y0167889D02*
X0200600Y0167889D01*
X0200600Y0167090D02*
X0201400Y0167090D01*
X0201400Y0166292D02*
X0200600Y0166292D01*
X0200600Y0165493D02*
X0201400Y0165493D01*
X0201400Y0164695D02*
X0200600Y0164695D01*
X0201074Y0163896D02*
X0201598Y0163896D01*
X0201872Y0163098D02*
X0202397Y0163098D01*
X0202671Y0162299D02*
X0203195Y0162299D01*
X0203469Y0161501D02*
X0203994Y0161501D01*
X0204268Y0160702D02*
X0208228Y0160702D01*
X0209026Y0159904D02*
X0205066Y0159904D01*
X0205865Y0159105D02*
X0209825Y0159105D01*
X0210974Y0163896D02*
X0211598Y0163896D01*
X0211400Y0164695D02*
X0210600Y0164695D01*
X0210600Y0165493D02*
X0211400Y0165493D01*
X0211400Y0166292D02*
X0210600Y0166292D01*
X0210600Y0167090D02*
X0211400Y0167090D01*
X0211400Y0167889D02*
X0210600Y0167889D01*
X0209818Y0168687D02*
X0212182Y0168687D01*
X0212981Y0169486D02*
X0209019Y0169486D01*
X0208221Y0170284D02*
X0213779Y0170284D01*
X0220600Y0167889D02*
X0221400Y0167889D01*
X0221400Y0167090D02*
X0220600Y0167090D01*
X0220600Y0166292D02*
X0221400Y0166292D01*
X0221400Y0165493D02*
X0220600Y0165493D01*
X0220600Y0164695D02*
X0221400Y0164695D01*
X0221598Y0163896D02*
X0220874Y0163896D01*
X0221672Y0163098D02*
X0222397Y0163098D01*
X0222471Y0162299D02*
X0223195Y0162299D01*
X0223269Y0161501D02*
X0223994Y0161501D01*
X0224068Y0160702D02*
X0228028Y0160702D01*
X0228826Y0159904D02*
X0224866Y0159904D01*
X0213750Y0150550D02*
X0213250Y0150550D01*
X0213250Y0145400D01*
X0212016Y0145400D01*
X0211660Y0145495D01*
X0211340Y0145680D01*
X0211141Y0145879D01*
X0210463Y0145200D01*
X0210100Y0145200D01*
X0210100Y0141550D01*
X0210967Y0140683D01*
X0211500Y0139396D01*
X0211500Y0138870D01*
X0215800Y0143170D01*
X0215800Y0145820D01*
X0215660Y0145680D01*
X0215340Y0145495D01*
X0214984Y0145400D01*
X0213750Y0145400D01*
X0213750Y0150550D01*
X0213750Y0150322D02*
X0213250Y0150322D01*
X0213250Y0149523D02*
X0213750Y0149523D01*
X0213750Y0148725D02*
X0213250Y0148725D01*
X0213250Y0147926D02*
X0213750Y0147926D01*
X0213750Y0147128D02*
X0213250Y0147128D01*
X0213250Y0146329D02*
X0213750Y0146329D01*
X0213750Y0145531D02*
X0213250Y0145531D01*
X0211599Y0145531D02*
X0210793Y0145531D01*
X0210100Y0144732D02*
X0215800Y0144732D01*
X0215800Y0143934D02*
X0210100Y0143934D01*
X0210100Y0143135D02*
X0215765Y0143135D01*
X0214967Y0142337D02*
X0210100Y0142337D01*
X0210112Y0141538D02*
X0214168Y0141538D01*
X0213370Y0140739D02*
X0210910Y0140739D01*
X0211274Y0139941D02*
X0212571Y0139941D01*
X0211773Y0139142D02*
X0211500Y0139142D01*
X0215401Y0145531D02*
X0215800Y0145531D01*
X0220000Y0144732D02*
X0222500Y0144732D01*
X0222500Y0143934D02*
X0220000Y0143934D01*
X0220000Y0143135D02*
X0222611Y0143135D01*
X0222942Y0142337D02*
X0220000Y0142337D01*
X0220000Y0141538D02*
X0223612Y0141538D01*
X0224967Y0140739D02*
X0219309Y0140739D01*
X0220793Y0145531D02*
X0221207Y0145531D01*
X0227033Y0140739D02*
X0230367Y0140739D01*
X0229012Y0141538D02*
X0228388Y0141538D01*
X0235793Y0145531D02*
X0236207Y0145531D01*
X0240793Y0145531D02*
X0241207Y0145531D01*
X0245793Y0145531D02*
X0246207Y0145531D01*
X0250793Y0145531D02*
X0251207Y0145531D01*
X0258700Y0132754D02*
X0150700Y0132754D01*
X0150700Y0131956D02*
X0258700Y0131956D01*
X0258700Y0115187D02*
X0256200Y0115187D01*
X0256200Y0114389D02*
X0258700Y0114389D01*
X0258700Y0113590D02*
X0256200Y0113590D01*
X0256200Y0112792D02*
X0258700Y0112792D01*
X0258700Y0111993D02*
X0256200Y0111993D01*
X0253750Y0110396D02*
X0253250Y0110396D01*
X0253250Y0109598D02*
X0253750Y0109598D01*
X0253750Y0108799D02*
X0253250Y0108799D01*
X0253250Y0108001D02*
X0253750Y0108001D01*
X0253750Y0107202D02*
X0253250Y0107202D01*
X0253250Y0106403D02*
X0253750Y0106403D01*
X0246400Y0105605D02*
X0245468Y0105605D01*
X0245200Y0104806D02*
X0246400Y0104806D01*
X0246400Y0104008D02*
X0245200Y0104008D01*
X0245200Y0103209D02*
X0246400Y0103209D01*
X0246400Y0102411D02*
X0245200Y0102411D01*
X0244982Y0101612D02*
X0246400Y0101612D01*
X0246400Y0100814D02*
X0244184Y0100814D01*
X0243510Y0100015D02*
X0243385Y0100015D01*
X0242712Y0099217D02*
X0242587Y0099217D01*
X0241913Y0098418D02*
X0241788Y0098418D01*
X0241400Y0097620D02*
X0240990Y0097620D01*
X0240600Y0096821D02*
X0241400Y0096821D01*
X0241400Y0096023D02*
X0240600Y0096023D01*
X0240600Y0095224D02*
X0241400Y0095224D01*
X0241400Y0094426D02*
X0240600Y0094426D01*
X0240133Y0093627D02*
X0241867Y0093627D01*
X0242666Y0092829D02*
X0239334Y0092829D01*
X0238536Y0092030D02*
X0243464Y0092030D01*
X0243928Y0090433D02*
X0238072Y0090433D01*
X0237905Y0090600D02*
X0234095Y0090600D01*
X0231400Y0087905D01*
X0231400Y0084095D01*
X0234095Y0081400D01*
X0237905Y0081400D01*
X0240600Y0084095D01*
X0240600Y0087905D01*
X0237905Y0090600D01*
X0238871Y0089635D02*
X0243129Y0089635D01*
X0242331Y0088836D02*
X0239669Y0088836D01*
X0240468Y0088038D02*
X0241532Y0088038D01*
X0241400Y0087239D02*
X0240600Y0087239D01*
X0240600Y0086441D02*
X0241400Y0086441D01*
X0241400Y0085642D02*
X0240600Y0085642D01*
X0240600Y0084844D02*
X0241400Y0084844D01*
X0241449Y0084045D02*
X0240551Y0084045D01*
X0239752Y0083247D02*
X0242248Y0083247D01*
X0243046Y0082448D02*
X0238954Y0082448D01*
X0238155Y0081650D02*
X0243845Y0081650D01*
X0233845Y0081650D02*
X0228155Y0081650D01*
X0227905Y0081400D02*
X0230600Y0084095D01*
X0230600Y0087905D01*
X0227905Y0090600D01*
X0224095Y0090600D01*
X0221400Y0087905D01*
X0221400Y0084095D01*
X0224095Y0081400D01*
X0227905Y0081400D01*
X0228954Y0082448D02*
X0233046Y0082448D01*
X0232248Y0083247D02*
X0229752Y0083247D01*
X0230551Y0084045D02*
X0231449Y0084045D01*
X0231400Y0084844D02*
X0230600Y0084844D01*
X0230600Y0085642D02*
X0231400Y0085642D01*
X0231400Y0086441D02*
X0230600Y0086441D01*
X0230600Y0087239D02*
X0231400Y0087239D01*
X0231532Y0088038D02*
X0230468Y0088038D01*
X0229669Y0088836D02*
X0232331Y0088836D01*
X0233129Y0089635D02*
X0228871Y0089635D01*
X0228072Y0090433D02*
X0233928Y0090433D01*
X0233464Y0092030D02*
X0228536Y0092030D01*
X0229334Y0092829D02*
X0232666Y0092829D01*
X0231867Y0093627D02*
X0230133Y0093627D01*
X0230600Y0094426D02*
X0231400Y0094426D01*
X0231400Y0095224D02*
X0230600Y0095224D01*
X0230600Y0096023D02*
X0231400Y0096023D01*
X0231400Y0096821D02*
X0230600Y0096821D01*
X0230600Y0097620D02*
X0231400Y0097620D01*
X0230988Y0098418D02*
X0231913Y0098418D01*
X0231787Y0099217D02*
X0232712Y0099217D01*
X0232585Y0100015D02*
X0233510Y0100015D01*
X0233384Y0100814D02*
X0238244Y0100814D01*
X0239043Y0101612D02*
X0234182Y0101612D01*
X0234981Y0102411D02*
X0239841Y0102411D01*
X0240640Y0103209D02*
X0235779Y0103209D01*
X0236578Y0104008D02*
X0241000Y0104008D01*
X0241000Y0104806D02*
X0237376Y0104806D01*
X0240468Y0105605D02*
X0241000Y0105605D01*
X0241000Y0106137D02*
X0241000Y0106137D01*
X0221913Y0098418D02*
X0219804Y0098418D01*
X0220400Y0097620D02*
X0221400Y0097620D01*
X0221400Y0096821D02*
X0220400Y0096821D01*
X0220400Y0095600D02*
X0216400Y0095600D01*
X0216400Y0091600D01*
X0217823Y0091600D01*
X0220400Y0094177D01*
X0220400Y0095600D01*
X0220400Y0095224D02*
X0221400Y0095224D01*
X0221400Y0094426D02*
X0220400Y0094426D01*
X0219850Y0093627D02*
X0221867Y0093627D01*
X0222666Y0092829D02*
X0219051Y0092829D01*
X0218253Y0092030D02*
X0223464Y0092030D01*
X0223928Y0090433D02*
X0218072Y0090433D01*
X0217905Y0090600D02*
X0214095Y0090600D01*
X0211400Y0087905D01*
X0211400Y0084095D01*
X0214095Y0081400D01*
X0217905Y0081400D01*
X0220600Y0084095D01*
X0220600Y0087905D01*
X0217905Y0090600D01*
X0218871Y0089635D02*
X0223129Y0089635D01*
X0222331Y0088836D02*
X0219669Y0088836D01*
X0220468Y0088038D02*
X0221532Y0088038D01*
X0221400Y0087239D02*
X0220600Y0087239D01*
X0220600Y0086441D02*
X0221400Y0086441D01*
X0221400Y0085642D02*
X0220600Y0085642D01*
X0220600Y0084844D02*
X0221400Y0084844D01*
X0221449Y0084045D02*
X0220551Y0084045D01*
X0219752Y0083247D02*
X0222248Y0083247D01*
X0223046Y0082448D02*
X0218954Y0082448D01*
X0218155Y0081650D02*
X0223845Y0081650D01*
X0213845Y0081650D02*
X0208155Y0081650D01*
X0208954Y0082448D02*
X0213046Y0082448D01*
X0212248Y0083247D02*
X0209752Y0083247D01*
X0210551Y0084045D02*
X0211449Y0084045D01*
X0211400Y0084844D02*
X0210600Y0084844D01*
X0210600Y0085642D02*
X0211400Y0085642D01*
X0211400Y0086441D02*
X0210600Y0086441D01*
X0210600Y0087239D02*
X0211400Y0087239D01*
X0211532Y0088038D02*
X0210468Y0088038D01*
X0209669Y0088836D02*
X0212331Y0088836D01*
X0213129Y0089635D02*
X0208871Y0089635D01*
X0208072Y0090433D02*
X0213928Y0090433D01*
X0214177Y0091600D02*
X0215600Y0091600D01*
X0215600Y0095600D01*
X0211600Y0095600D01*
X0211600Y0094177D01*
X0214177Y0091600D01*
X0213747Y0092030D02*
X0208536Y0092030D01*
X0209334Y0092829D02*
X0212949Y0092829D01*
X0212150Y0093627D02*
X0210133Y0093627D01*
X0210600Y0094426D02*
X0211600Y0094426D01*
X0211600Y0095224D02*
X0210600Y0095224D01*
X0210600Y0096023D02*
X0215600Y0096023D01*
X0215600Y0095224D02*
X0216400Y0095224D01*
X0216400Y0094426D02*
X0215600Y0094426D01*
X0215600Y0093627D02*
X0216400Y0093627D01*
X0216400Y0092829D02*
X0215600Y0092829D01*
X0215600Y0092030D02*
X0216400Y0092030D01*
X0216400Y0096023D02*
X0221400Y0096023D01*
X0212196Y0098418D02*
X0211188Y0098418D01*
X0211600Y0097620D02*
X0210600Y0097620D01*
X0210600Y0096821D02*
X0211600Y0096821D01*
X0207430Y0100600D02*
X0207430Y0100600D01*
X0203510Y0100015D02*
X0202885Y0100015D01*
X0202712Y0099217D02*
X0202087Y0099217D01*
X0201913Y0098418D02*
X0201288Y0098418D01*
X0201400Y0097620D02*
X0200600Y0097620D01*
X0200600Y0096821D02*
X0201400Y0096821D01*
X0201400Y0096023D02*
X0200600Y0096023D01*
X0200600Y0095224D02*
X0201400Y0095224D01*
X0201400Y0094426D02*
X0200600Y0094426D01*
X0199994Y0088836D02*
X0199669Y0088836D01*
X0200468Y0088038D02*
X0200792Y0088038D01*
X0200600Y0087239D02*
X0201400Y0087239D01*
X0201400Y0086441D02*
X0200600Y0086441D01*
X0200600Y0085642D02*
X0201400Y0085642D01*
X0201400Y0084844D02*
X0200600Y0084844D01*
X0200551Y0084045D02*
X0201449Y0084045D01*
X0202248Y0083247D02*
X0199752Y0083247D01*
X0198954Y0082448D02*
X0203046Y0082448D01*
X0203845Y0081650D02*
X0198155Y0081650D01*
X0163676Y0079254D02*
X0143300Y0079254D01*
X0143300Y0080053D02*
X0162878Y0080053D01*
X0162079Y0080851D02*
X0143300Y0080851D01*
X0143300Y0081650D02*
X0143845Y0081650D01*
X0148155Y0081650D02*
X0153845Y0081650D01*
X0153046Y0082448D02*
X0148954Y0082448D01*
X0149752Y0083247D02*
X0152248Y0083247D01*
X0151449Y0084045D02*
X0150551Y0084045D01*
X0150600Y0084844D02*
X0151400Y0084844D01*
X0151400Y0085642D02*
X0150600Y0085642D01*
X0150600Y0086441D02*
X0151400Y0086441D01*
X0151400Y0087239D02*
X0150600Y0087239D01*
X0150468Y0088038D02*
X0151532Y0088038D01*
X0152331Y0088836D02*
X0149669Y0088836D01*
X0148871Y0089635D02*
X0153129Y0089635D01*
X0153928Y0090433D02*
X0148072Y0090433D01*
X0148536Y0092030D02*
X0153464Y0092030D01*
X0152666Y0092829D02*
X0149334Y0092829D01*
X0150133Y0093627D02*
X0151867Y0093627D01*
X0151400Y0094426D02*
X0150600Y0094426D01*
X0150600Y0095224D02*
X0151400Y0095224D01*
X0151400Y0096023D02*
X0150600Y0096023D01*
X0150600Y0096821D02*
X0151400Y0096821D01*
X0151400Y0097620D02*
X0150600Y0097620D01*
X0143510Y0100015D02*
X0143300Y0100015D01*
X0143300Y0092030D02*
X0143464Y0092030D01*
X0143300Y0091232D02*
X0157998Y0091232D01*
X0158072Y0090433D02*
X0158200Y0090433D01*
X0158954Y0082448D02*
X0160482Y0082448D01*
X0161280Y0081650D02*
X0158155Y0081650D01*
X0143928Y0090433D02*
X0143300Y0090433D01*
X0155401Y0145531D02*
X0156207Y0145531D01*
X0160793Y0145531D02*
X0161207Y0145531D01*
X0165793Y0145531D02*
X0166207Y0145531D01*
X0170793Y0145531D02*
X0171207Y0145531D01*
X0175793Y0145531D02*
X0176207Y0145531D01*
X0166048Y0155911D02*
X0165952Y0155911D01*
X0161048Y0155911D02*
X0160952Y0155911D01*
X0156048Y0155911D02*
X0155669Y0155911D01*
X0168006Y0161501D02*
X0170800Y0161501D01*
X0170631Y0162299D02*
X0168805Y0162299D01*
X0169603Y0163098D02*
X0169832Y0163098D01*
X0169701Y0173478D02*
X0169869Y0173478D01*
X0170400Y0174277D02*
X0171400Y0174277D01*
X0171400Y0175075D02*
X0170400Y0175075D01*
X0171400Y0175874D02*
X0166400Y0175874D01*
X0170400Y0176672D02*
X0171400Y0176672D01*
X0171400Y0177471D02*
X0170400Y0177471D01*
X0169953Y0178270D02*
X0171764Y0178270D01*
X0193000Y0170284D02*
X0193779Y0170284D01*
X0230400Y0175075D02*
X0231400Y0175075D01*
X0231400Y0174277D02*
X0231076Y0174277D01*
X0258490Y0100015D02*
X0258700Y0100015D01*
D12*
X0256000Y0096000D03*
X0246000Y0096000D03*
X0246000Y0086000D03*
X0256000Y0086000D03*
X0236000Y0086000D03*
X0226000Y0086000D03*
X0226000Y0096000D03*
X0236000Y0096000D03*
X0216000Y0096000D03*
X0206000Y0096000D03*
X0206000Y0086000D03*
X0216000Y0086000D03*
X0196000Y0086000D03*
X0186000Y0086000D03*
X0186000Y0096000D03*
X0196000Y0096000D03*
X0176000Y0096000D03*
X0176000Y0086000D03*
X0166000Y0086000D03*
X0156000Y0086000D03*
X0156000Y0096000D03*
X0166000Y0096000D03*
X0146000Y0096000D03*
X0146000Y0086000D03*
X0166000Y0166000D03*
X0166000Y0176000D03*
X0176000Y0176000D03*
X0176000Y0166000D03*
X0186000Y0166000D03*
X0196000Y0166000D03*
X0196000Y0176000D03*
X0186000Y0176000D03*
X0206000Y0176000D03*
X0216000Y0176000D03*
X0216000Y0166000D03*
X0206000Y0166000D03*
X0226000Y0166000D03*
X0236000Y0166000D03*
X0236000Y0176000D03*
X0226000Y0176000D03*
D13*
X0223500Y0150800D03*
X0218500Y0150800D03*
X0213500Y0150800D03*
X0208500Y0150800D03*
X0193500Y0150800D03*
X0188500Y0150800D03*
X0183500Y0150800D03*
X0178500Y0150800D03*
X0173500Y0150800D03*
X0168500Y0150800D03*
X0163500Y0150800D03*
X0158500Y0150800D03*
X0153500Y0150800D03*
X0148500Y0150800D03*
X0148500Y0111200D03*
X0153500Y0111200D03*
X0158500Y0111200D03*
X0163500Y0111200D03*
X0168500Y0111200D03*
X0173500Y0111200D03*
X0178500Y0111200D03*
X0183500Y0111200D03*
X0188500Y0111200D03*
X0193500Y0111200D03*
X0208500Y0111200D03*
X0213500Y0111200D03*
X0218500Y0111200D03*
X0223500Y0111200D03*
X0228500Y0111200D03*
X0233500Y0111200D03*
X0238500Y0111200D03*
X0243500Y0111200D03*
X0248500Y0111200D03*
X0253500Y0111200D03*
X0253500Y0150800D03*
X0248500Y0150800D03*
X0243500Y0150800D03*
X0238500Y0150800D03*
X0233500Y0150800D03*
X0228500Y0150800D03*
D14*
X0227800Y0150400D01*
X0227800Y0145900D01*
X0226000Y0144100D01*
X0231400Y0144100D02*
X0233200Y0145900D01*
X0233200Y0150400D01*
X0233500Y0150800D01*
X0237700Y0151300D02*
X0237700Y0154000D01*
X0234100Y0157600D01*
X0224200Y0157600D01*
X0216100Y0165700D01*
X0216000Y0166000D01*
X0220600Y0171100D02*
X0216100Y0175600D01*
X0216000Y0176000D01*
X0220600Y0171100D02*
X0229600Y0171100D01*
X0231400Y0167500D02*
X0235900Y0172000D01*
X0235900Y0175600D01*
X0236000Y0176000D01*
X0231400Y0167500D02*
X0231400Y0163900D01*
X0234100Y0161200D01*
X0240400Y0161200D01*
X0248500Y0153100D01*
X0248500Y0150800D01*
X0253000Y0151300D02*
X0253000Y0154000D01*
X0241300Y0165700D01*
X0236800Y0165700D01*
X0236000Y0166000D01*
X0237700Y0159400D02*
X0232300Y0159400D01*
X0226000Y0165700D01*
X0226000Y0166000D01*
X0220600Y0156700D02*
X0205300Y0156700D01*
X0196000Y0166000D01*
X0190900Y0164800D02*
X0190900Y0171100D01*
X0186000Y0176000D01*
X0181000Y0171100D02*
X0176500Y0175600D01*
X0176000Y0176000D01*
X0181000Y0171100D02*
X0181000Y0164800D01*
X0182800Y0163000D01*
X0182800Y0151300D01*
X0183500Y0150800D01*
X0179200Y0150400D02*
X0179200Y0147700D01*
X0186400Y0140500D01*
X0192700Y0140500D01*
X0196300Y0144100D01*
X0196300Y0159400D01*
X0190900Y0164800D01*
X0186400Y0157600D02*
X0188200Y0155800D01*
X0188200Y0151300D01*
X0188500Y0150800D01*
X0192700Y0150400D02*
X0192700Y0145900D01*
X0190900Y0144100D01*
X0192700Y0150400D02*
X0193500Y0150800D01*
X0199900Y0141400D02*
X0206200Y0135100D01*
X0210700Y0135100D01*
X0217900Y0142300D01*
X0217900Y0150400D01*
X0218500Y0150800D01*
X0223300Y0151300D02*
X0223300Y0154000D01*
X0220600Y0156700D01*
X0223300Y0151300D02*
X0223500Y0150800D01*
X0213500Y0150800D02*
X0213400Y0150400D01*
X0213400Y0143200D01*
X0208000Y0138700D02*
X0208000Y0150400D01*
X0208500Y0150800D01*
X0211600Y0160300D02*
X0206200Y0165700D01*
X0206000Y0166000D01*
X0211600Y0160300D02*
X0213400Y0160300D01*
X0237700Y0159400D02*
X0243100Y0154000D01*
X0243100Y0151300D01*
X0243500Y0150800D01*
X0238500Y0150800D02*
X0237700Y0151300D01*
X0253000Y0151300D02*
X0253500Y0150800D01*
X0223300Y0114400D02*
X0217000Y0120700D01*
X0211600Y0120700D01*
X0213400Y0113500D02*
X0198100Y0128800D01*
X0158500Y0128800D01*
X0145900Y0116200D01*
X0145900Y0106300D01*
X0151300Y0100900D01*
X0161200Y0100900D01*
X0165700Y0096400D01*
X0166000Y0096000D01*
X0169300Y0099100D02*
X0171100Y0097300D01*
X0171100Y0091000D01*
X0175600Y0086500D01*
X0176000Y0086000D01*
X0177400Y0081100D02*
X0181000Y0084700D01*
X0181000Y0097300D01*
X0173800Y0104500D01*
X0173800Y0110800D01*
X0173500Y0111200D01*
X0169300Y0110800D02*
X0168500Y0111200D01*
X0169300Y0110800D02*
X0169300Y0099100D01*
X0165700Y0102700D02*
X0154000Y0102700D01*
X0148600Y0108100D01*
X0148600Y0110800D01*
X0148500Y0111200D01*
X0153500Y0111200D02*
X0154000Y0110800D01*
X0158500Y0110800D01*
X0158500Y0111200D01*
X0158500Y0110800D02*
X0163000Y0110800D01*
X0163500Y0111200D01*
X0163900Y0111700D01*
X0163900Y0114400D01*
X0171100Y0121600D01*
X0185500Y0121600D01*
X0185500Y0125200D01*
X0185500Y0121600D02*
X0192700Y0114400D01*
X0192700Y0111700D01*
X0193500Y0111200D01*
X0189100Y0110800D02*
X0188500Y0111200D01*
X0189100Y0110800D02*
X0189100Y0108100D01*
X0193600Y0103600D01*
X0198100Y0103600D01*
X0202600Y0102700D02*
X0196300Y0096400D01*
X0196000Y0096000D01*
X0194500Y0091000D02*
X0190900Y0094600D01*
X0190900Y0097300D01*
X0183700Y0104500D01*
X0183700Y0110800D01*
X0183500Y0111200D01*
X0179200Y0111700D02*
X0179200Y0114400D01*
X0182800Y0118000D01*
X0179200Y0111700D02*
X0178500Y0111200D01*
X0180100Y0103600D02*
X0180100Y0101800D01*
X0185500Y0096400D01*
X0186000Y0096000D01*
X0194500Y0091000D02*
X0200800Y0091000D01*
X0205300Y0086500D01*
X0206000Y0086000D01*
X0206000Y0096000D02*
X0206200Y0096400D01*
X0210700Y0100900D01*
X0226000Y0100900D01*
X0233200Y0108100D01*
X0233200Y0110800D01*
X0233500Y0111200D01*
X0237700Y0110800D02*
X0238500Y0111200D01*
X0237700Y0110800D02*
X0237700Y0108100D01*
X0226000Y0096400D01*
X0226000Y0096000D01*
X0220600Y0091000D02*
X0216100Y0095500D01*
X0216000Y0096000D01*
X0220600Y0091000D02*
X0247600Y0091000D01*
X0250300Y0093700D01*
X0250300Y0096400D01*
X0253000Y0099100D01*
X0253000Y0110800D01*
X0253500Y0111200D01*
X0248500Y0111200D02*
X0248500Y0098200D01*
X0246700Y0096400D01*
X0246000Y0096000D01*
X0243100Y0102700D02*
X0236800Y0096400D01*
X0236000Y0096000D01*
X0243100Y0102700D02*
X0243100Y0110800D01*
X0243500Y0111200D01*
X0228500Y0111200D02*
X0227800Y0110800D01*
X0227800Y0108100D01*
X0222400Y0102700D01*
X0202600Y0102700D01*
X0207100Y0105400D02*
X0203500Y0109000D01*
X0207100Y0105400D02*
X0215200Y0105400D01*
X0217900Y0108100D01*
X0217900Y0110800D01*
X0218500Y0111200D01*
X0223300Y0111700D02*
X0223300Y0114400D01*
X0223300Y0111700D02*
X0223500Y0111200D01*
X0213500Y0111200D02*
X0213400Y0111700D01*
X0213400Y0113500D01*
X0208500Y0111200D02*
X0198100Y0121600D01*
X0194500Y0118000D02*
X0198100Y0114400D01*
X0198100Y0109000D01*
X0177400Y0081100D02*
X0164800Y0081100D01*
X0160300Y0085600D01*
X0160300Y0091900D01*
X0156700Y0095500D01*
X0156000Y0096000D01*
X0149500Y0125200D02*
X0148600Y0126100D01*
X0148600Y0150400D01*
X0148500Y0150800D01*
X0153500Y0150800D02*
X0154000Y0151300D01*
X0154000Y0163900D01*
X0165700Y0175600D01*
X0166000Y0176000D01*
X0171100Y0170200D02*
X0171100Y0164800D01*
X0172900Y0163000D01*
X0172900Y0151300D01*
X0173500Y0150800D01*
X0178500Y0150800D02*
X0179200Y0150400D01*
D15*
X0186400Y0157600D03*
X0190900Y0144100D03*
X0199900Y0141400D03*
X0208000Y0138700D03*
X0213400Y0143200D03*
X0226000Y0144100D03*
X0231400Y0144100D03*
X0213400Y0160300D03*
X0229600Y0171100D03*
X0185500Y0125200D03*
X0182800Y0118000D03*
X0194500Y0118000D03*
X0198100Y0121600D03*
X0211600Y0120700D03*
X0203500Y0109000D03*
X0198100Y0109000D03*
X0198100Y0103600D03*
X0180100Y0103600D03*
X0165700Y0102700D03*
X0149500Y0125200D03*
X0171100Y0170200D03*
M02*
