G75*
%MOIN*%
%OFA0B0*%
%FSLAX25Y25*%
%IPPOS*%
%LPD*%
%AMOC8*
5,1,8,0,0,1.08239X$1,22.5*
%
%ADD10OC8,0.06500*%
%ADD11C,0.04300*%
D10*
X0146000Y0086000D03*
X0146000Y0096000D03*
X0156000Y0096000D03*
X0166000Y0096000D03*
X0166000Y0086000D03*
X0156000Y0086000D03*
X0176000Y0086000D03*
X0176000Y0096000D03*
X0186000Y0096000D03*
X0196000Y0096000D03*
X0196000Y0086000D03*
X0186000Y0086000D03*
X0206000Y0086000D03*
X0216000Y0086000D03*
X0216000Y0096000D03*
X0206000Y0096000D03*
X0226000Y0096000D03*
X0236000Y0096000D03*
X0236000Y0086000D03*
X0226000Y0086000D03*
X0246000Y0086000D03*
X0256000Y0086000D03*
X0256000Y0096000D03*
X0246000Y0096000D03*
X0236000Y0166000D03*
X0226000Y0166000D03*
X0226000Y0176000D03*
X0236000Y0176000D03*
X0216000Y0176000D03*
X0206000Y0176000D03*
X0206000Y0166000D03*
X0216000Y0166000D03*
X0196000Y0166000D03*
X0186000Y0166000D03*
X0186000Y0176000D03*
X0196000Y0176000D03*
X0176000Y0176000D03*
X0176000Y0166000D03*
X0166000Y0166000D03*
X0166000Y0176000D03*
D11*
X0171100Y0170200D03*
X0186400Y0157600D03*
X0190900Y0144100D03*
X0199900Y0141400D03*
X0208000Y0138700D03*
X0213400Y0143200D03*
X0226000Y0144100D03*
X0231400Y0144100D03*
X0213400Y0160300D03*
X0229600Y0171100D03*
X0185500Y0125200D03*
X0182800Y0118000D03*
X0194500Y0118000D03*
X0198100Y0121600D03*
X0211600Y0120700D03*
X0203500Y0109000D03*
X0198100Y0109000D03*
X0198100Y0103600D03*
X0180100Y0103600D03*
X0165700Y0102700D03*
X0149500Y0125200D03*
M02*
